<?xml version="1.0" standalone="no"?>
<!DOCTYPE svg PUBLIC "-//W3C//DTD SVG 1.1//EN" "http://www.w3.org/Graphics/SVG/1.1/DTD/svg11.dtd" >
<!--
2013-9-30: Created.
-->
<svg>
<metadata>
Created by iconfont
</metadata>
<defs>

<font id="iconfont" horiz-adv-x="1024" >
  <font-face
    font-family="iconfont"
    font-weight="500"
    font-stretch="normal"
    units-per-em="1024"
    ascent="896"
    descent="-128"
  />
    <missing-glyph />
    
    <glyph glyph-name="xuanzhongjiantou" unicode="&#59473;" d="M116.394667 374.912c18.773333 18.730667 49.152 18.730667 67.882666 0l199.850667-199.850667L885.717333 676.608a48 48 0 1 0 67.882667-67.882667L418.602667 73.685333a48 48 0 0 0-68.394667-0.512l-233.813333 233.813334a48 48 0 0 0 0 67.925333z"  horiz-adv-x="1024" />

    
    <glyph glyph-name="daijiedai" unicode="&#59476;" d="M0 896m136.533333 0l750.933334 0q136.533333 0 136.533333-136.533333l0-750.933334q0-136.533333-136.533333-136.533333l-750.933334 0q-136.533333 0-136.533333 136.533333l0 750.933334q0 136.533333 136.533333 136.533333ZM682.666667 503.466667a34.133333 34.133333 0 0 0 34.133333-34.133334l0.017067-43.793066a128.017067 128.017067 0 0 0-3.072-254.122667A102.417067 102.417067 0 0 0 614.4 93.866667H341.333333a102.4 102.4 0 0 0-102.4 102.4V469.333333a34.133333 34.133333 0 0 0 34.133334 34.133334h409.6z m34.1504-129.911467v-149.777067a76.834133 76.834133 0 0 1 0 149.777067zM324.266667 691.2a34.133333 34.133333 0 0 0 34.133333-34.133333v-68.266667a34.133333 34.133333 0 1 0-68.266667 0v68.266667a34.133333 34.133333 0 0 0 34.133334 34.133333z m153.6 0a34.133333 34.133333 0 0 0 34.133333-34.133333v-68.266667a34.133333 34.133333 0 1 0-68.266667 0v68.266667a34.133333 34.133333 0 0 0 34.133334 34.133333z m153.6 0a34.133333 34.133333 0 0 0 34.133333-34.133333v-68.266667a34.133333 34.133333 0 1 0-68.266667 0v68.266667a34.133333 34.133333 0 0 0 34.133334 34.133333z"  horiz-adv-x="1024" />

    
    <glyph glyph-name="jiedaizhong" unicode="&#59486;" d="M0 896m136.533333 0l750.933334 0q136.533333 0 136.533333-136.533333l0-750.933334q0-136.533333-136.533333-136.533333l-750.933334 0q-136.533333 0-136.533333 136.533333l0 750.933334q0 136.533333 136.533333 136.533333ZM750.933333 708.266667a34.133333 34.133333 0 1 0 0-68.266667h-31.044266v-78.0288a68.266667 68.266667 0 0 0-19.968-48.264533l-2.833067-2.679467L554.717867 384l142.370133-127.0272a68.266667 68.266667 0 0 0 22.818133-50.944L719.872 128H750.933333a34.133333 34.133333 0 1 0 0-68.266667H273.066667a34.133333 34.133333 0 1 0 0 68.266667h43.434666v78.0288a68.266667 68.266667 0 0 0 22.818134 50.944L481.672533 384l-142.336 127.0272a68.266667 68.266667 0 0 0-22.715733 47.069867l-0.119467 3.874133V640H273.066667a34.133333 34.133333 0 1 0 0 68.266667h477.866666z m-82.244266-68.266667H367.701333v-78.0288l0.136534-2.065067a17.066667 17.066667 0 0 1 5.5808-10.666666l144.776533-129.211734 144.810667 129.194667 1.450666 1.4848a17.066667 17.066667 0 0 1 4.2496 11.264L668.672 640z"  horiz-adv-x="1024" />

    
    <glyph glyph-name="yiliushi" unicode="&#59487;" d="M0 896m136.533333 0l750.933334 0q136.533333 0 136.533333-136.533333l0-750.933334q0-136.533333-136.533333-136.533333l-750.933334 0q-136.533333 0-136.533333 136.533333l0 750.933334q0 136.533333 136.533333 136.533333ZM597.333333 716.8a76.834133 76.834133 0 0 0 74.888534-59.716267L733.866667 657.066667a51.2 51.2 0 0 0 51.2-51.2v-477.866667a51.2 51.2 0 0 0-51.2-51.2H290.133333a51.2 51.2 0 0 0-51.2 51.2V605.866667a51.2 51.2 0 0 0 51.2 51.2l61.6448 0.017066A76.834133 76.834133 0 0 0 426.666667 716.8z m0-51.2H426.666667a25.6 25.6 0 0 1 0-51.2h170.666666a25.6 25.6 0 0 1 0 51.2zM375.476004 450.20558m18.101933-18.101933l193.087292-193.087292q18.101934-18.101934 36.203867 0l0 0q18.101934 18.101934 0 36.203867l-193.087292 193.087292q-18.101934 18.101934-36.203867 0l0 0q-18.101934-18.101934 0-36.203867ZM411.679871 220.914421m18.101933 18.101934l193.087292 193.087292q18.101934 18.101934 0 36.203867l0 0q-18.101934 18.101934-36.203867 0l-193.087292-193.087292q-18.101934-18.101934 0-36.203867l0 0q18.101934-18.101934 36.203867 0Z"  horiz-adv-x="1024" />

    
    <glyph glyph-name="yichengjiao" unicode="&#59488;" d="M0 896m136.533333 0l750.933334 0q136.533333 0 136.533333-136.533333l0-750.933334q0-136.533333-136.533333-136.533333l-750.933334 0q-136.533333 0-136.533333 136.533333l0 750.933334q0 136.533333 136.533333 136.533333ZM597.333333 716.8a76.834133 76.834133 0 0 0 74.888534-59.716267L733.866667 657.066667a51.2 51.2 0 0 0 51.2-51.2v-477.866667a51.2 51.2 0 0 0-51.2-51.2H290.133333a51.2 51.2 0 0 0-51.2 51.2V605.866667a51.2 51.2 0 0 0 51.2 51.2l61.6448 0.017066A76.834133 76.834133 0 0 0 426.666667 716.8z m0-51.2H426.666667a25.6 25.6 0 0 1 0-51.2h170.666666a25.6 25.6 0 0 1 0 51.2zM375.478959 365.719202m18.101934-18.101933l84.47569-84.47569q18.101934-18.101934 36.203867 0l0 0q18.101934 18.101934 0 36.203867l-84.47569 84.47569q-18.101934 18.101934-36.203867 0l0 0q-18.101934-18.101934 0-36.203867ZM496.158517 245.039645m18.101933 18.101934l168.951381 168.95138q18.101934 18.101934 0 36.203867l0 0q-18.101934 18.101934-36.203868 0l-168.95138-168.95138q-18.101934-18.101934 0-36.203867l0 0q18.101934-18.101934 36.203867 0Z"  horiz-adv-x="1024" />

    
    <glyph glyph-name="mendian1" unicode="&#59470;" d="M1022.907733 383.488c5.12-317.064533-194.321067-516.5056-511.419733-511.3856C194.423467-130.4576-5.0176 66.423467 0.1024 383.488-5.0176 703.146667 194.423467 900.027733 511.488 894.907733c317.098667 5.12 516.539733-191.7952 511.419733-511.419733zM1020.347733 329.796267c-15.36 225.041067-168.7552 365.6704-406.562133 360.5504-253.166933 5.12-414.242133-153.429333-409.122133-409.122134-5.12-237.806933 135.509333-391.236267 360.516266-406.562133 268.4928 15.36 439.842133 186.641067 455.168 455.133867zM1015.227733 265.898667c-30.685867 138.069333-138.069333 222.446933-299.178666 219.886933-189.201067 2.56-309.384533-117.623467-306.858667-306.858667-2.525867-158.5152 81.851733-268.4928 219.921067-299.144533 209.681067 35.771733 350.3104 176.4352 386.116266 386.082133zM997.341867 191.726933c-33.245867 58.811733-94.6176 92.0576-178.9952 92.0576-127.863467 2.56-207.121067-76.731733-204.561067-204.561066-2.56-81.8176 33.245867-145.749333 92.0576-178.9952a428.1344 428.1344 0 0 1 291.498667 291.498666zM818.346667 498.551467V605.969067a68.744533 68.744533 0 0 1-69.051734 69.0176H301.806933A68.744533 68.744533 0 0 1 232.789333 605.969067v-107.4176c0-30.651733 20.48-58.811733 48.571734-66.4576v-299.178667H258.389333c-12.8 0-23.005867-10.24-23.005866-23.005867 0-12.8 10.24-23.04 23.005866-23.04h534.4256c12.765867 0 23.005867 10.24 23.005867 23.04 0 12.765867-10.24 23.005867-23.005867 23.005867h-23.005866v299.178667c28.125867 10.24 48.571733 35.805867 48.571733 66.4576zM278.801067 605.969067c0 12.765867 10.24 23.005867 23.04 23.005866h447.488c12.765867 0 22.971733-10.24 22.971733-23.005866v-107.4176c0-12.765867-10.24-23.005867-23.005867-23.005867H301.806933a22.903467 22.903467 0 0 0-23.005866 23.005867V605.969067z m301.738666-470.493867h-109.943466v132.949333c0 5.12 2.56 7.68 7.645866 7.68h94.6176c5.12 0 7.68-2.56 7.68-7.68v-132.949333z m46.011734 0v132.949333c0 30.72-25.565867 53.691733-53.691734 53.691734h-94.6176c-30.651733 0-53.691733-25.565867-53.691733-53.691734v-132.949333H329.966933v294.058667h393.762134v-294.058667h-97.1776zM639.351467 521.557333h69.051733c12.765867 0 23.005867 10.24 23.005867 23.04 0 12.765867-10.24 23.005867-23.005867 23.005867H639.317333c-12.8 0-23.005867-10.24-23.005866-23.005867-2.56-12.8 7.68-23.005867 23.005866-23.005866z"  horiz-adv-x="1024" />

    
    <glyph glyph-name="butongguo" unicode="&#59468;" d="M512 384m-512 0a512 512 0 1 1 1024 0 512 512 0 1 1-1024 0ZM512 896c282.7776 0 512-229.2224 512-512 0-282.7776-229.2224-512-512-512C229.2224-128 0 101.2224 0 384 0 666.7776 229.2224 896 512 896z m0-102.4C285.781333 793.6 102.4 610.218667 102.4 384s183.381333-409.6 409.6-409.6 409.6 183.381333 409.6 409.6S738.218667 793.6 512 793.6zM668.8768 540.8768a51.2 51.2 0 0 0 0-72.3968L427.52 227.1232a51.2 51.2 0 0 0-72.3968 72.3968L596.48 540.8768a51.2 51.2 0 0 0 72.3968 0zM668.8768 227.1232a51.2 51.2 0 0 0-72.3968 0L355.1232 468.48a51.2 51.2 0 0 0 72.3968 72.3968L668.8768 299.52a51.2 51.2 0 0 0 0-72.3968z"  horiz-adv-x="1024" />

    
    <glyph glyph-name="tongguo1" unicode="&#59469;" d="M512 384m-512 0a512 512 0 1 1 1024 0 512 512 0 1 1-1024 0ZM512 896c282.7776 0 512-229.2224 512-512 0-282.7776-229.2224-512-512-512C229.2224-128 0 101.2224 0 384 0 666.7776 229.2224 896 512 896z m0-102.4C285.781333 793.6 102.4 610.218667 102.4 384s183.381333-409.6 409.6-409.6 409.6 183.381333 409.6 409.6S738.218667 793.6 512 793.6zM282.709333 423.133867a51.2 51.2 0 0 0 72.413867 0l144.810667-144.810667a51.2 51.2 0 0 0-72.413867-72.413867l-144.810667 144.810667a51.2 51.2 0 0 0 0 72.413867zM741.290667 519.6800000000001a51.2 51.2 0 0 0 0-72.413867L499.933867 205.90933299999995a51.2 51.2 0 0 0-72.413867 72.413867L668.8768 519.6800000000001a51.2 51.2 0 0 0 72.413867 0z"  horiz-adv-x="1024" />

    
    <glyph glyph-name="qinglihuancun" unicode="&#59467;" d="M372.55168 573.99296h260.58752V704.26624a130.29376 130.29376 0 1 1-260.58752 0v-130.27328z m219.62752 40.96h-178.64704V704.26624A89.33376 89.33376 0 0 0 502.82496 793.6l4.34176-0.1024a89.33376 89.33376 0 0 0 84.992-89.23136v-89.2928zM813.9776 614.95296H191.73376a130.29376 130.29376 0 1 1 0-260.58752h622.24384a130.29376 130.29376 0 0 1 0 260.58752z m-622.24384-40.96h622.24384a89.33376 89.33376 0 0 0 0-178.66752H191.73376a89.33376 89.33376 0 1 0 0 178.66752zM654.27456 240.80384a20.48 20.48 0 0 0 23.1424-14.336l0.53248-2.33472 46.3872-266.71104a20.48 20.48 0 0 0-39.81312-9.33888l-0.53248 2.33472-46.3872 266.69056a20.48 20.48 0 0 0 16.67072 23.69536zM831.20128 395.32544H174.4896L123.37152 101.376A143.36 143.36 0 0 1 264.62208-66.56h476.4672a143.36 143.36 0 0 1 141.23008 167.936l-51.11808 293.94944z m-622.26432-40.93952h587.79648l45.24032-260.03456A102.4 102.4 0 0 0 741.08928-25.6H264.6016a102.4 102.4 0 0 0-102.4 102.4l0.16384 5.87776a102.4 102.4 0 0 0 1.35168 11.6736l45.19936 260.03456z"  horiz-adv-x="1024" />

    
    <glyph glyph-name="jingxiaoguanli" unicode="&#59458;" d="M0 896m327.68 0l368.64 0q327.68 0 327.68-327.68l0-368.64q0-327.68-327.68-327.68l-368.64 0q-327.68 0-327.68 327.68l0 368.64q0 327.68 327.68 327.68ZM757.76 609.28a81.92 81.92 0 0 0 81.92-81.92v-348.16a81.92 81.92 0 0 0-81.92-81.92H266.24a81.92 81.92 0 0 0-81.92 81.92V527.36a81.92 81.92 0 0 0 81.92 81.92z m40.96-276.48H686.08v-61.44a20.48 20.48 0 1 0-40.96 0v61.44H399.36v-61.44a20.48 20.48 0 1 0-40.96 0v61.44H225.28v-153.6a40.96 40.96 0 0 1 40.96-40.96h491.52a40.96 40.96 0 0 1 40.96 40.96V332.8z m-40.96 235.52H266.24a40.96 40.96 0 0 1-40.96-40.96v-153.6h133.12v61.44a20.48 20.48 0 1 0 40.96 0v-61.44h245.76v61.44a20.48 20.48 0 1 0 40.96 0v-61.44h112.64V527.36a40.96 40.96 0 0 1-40.96 40.96zM645.12 691.2a20.48 20.48 0 1 0 0-40.96H378.88a20.48 20.48 0 1 0 0 40.96h266.24z"  horiz-adv-x="1024" />

    
    <glyph glyph-name="wuliaokucun" unicode="&#59459;" d="M512 384m-512 0a512 512 0 1 1 1024 0 512 512 0 1 1-1024 0ZM805.23264 216.20736a30.72 30.72 0 0 0-17.83808-27.89376l-254.1568-117.28896a32.37888 32.37888 0 0 0-9.29792-2.6624 35.1232 35.1232 0 0 0-3.03104-0.2048h-1.04448a30.1056 30.1056 0 0 0-12.34944 2.8672l2.2528-0.96256a31.0272 31.0272 0 0 0-1.80224 0.73728l-0.45056 0.2048-254.1568 117.30944a30.72 30.72 0 0 0-17.83808 27.89376V558.2848a32.3584 32.3584 0 0 0 0.08192 2.1504l-0.08192-1.8432c0 1.69984 0.16384 3.33824 0.43008 4.9152l0.04096 0.2048a31.3344 31.3344 0 0 0 1.26976 4.87424c2.19136 6.3488 6.49216 12.02176 12.86144 15.872l0.8192 0.47104c0.9216 0.53248 1.86368 1.024 2.8672 1.45408l-2.29376-1.1264 2.00704 1.024 0.28672 0.1024 254.1568 112.41472a30.72 30.72 0 0 0 24.84224 0l254.13632-112.41472a33.54624 33.54624 0 0 0 3.91168-2.06848 29.7984 29.7984 0 0 0 14.15168-22.2208c0.14336-1.18784 0.2048-2.37568 0.22528-3.56352zM296.96 510.30016v-274.432l192.69632-88.94464V421.376L296.96 510.30016z m446.83264 0.02048l-72.15104-33.30048v-134.144a30.72 30.72 0 0 0-61.29664-2.94912l-0.14336 2.94912-0.02048 105.7792-59.0848-27.27936v-274.432l192.69632 88.92416V510.32064z m-223.41632 126.83264l-179.54816-79.42144 179.54816-82.86208 46.94016 21.66784-25.88672 11.96032a30.72 30.72 0 0 0-16.13824 38.03136l1.10592 2.74432a30.72 30.72 0 0 0 38.03136 16.11776l2.74432-1.10592 73.46176-33.91488 59.26912 27.36128-179.52768 79.42144z"  horiz-adv-x="1024" />

    
    <glyph glyph-name="gouhuochaxun" unicode="&#59460;" d="M512 384m-512 0a512 512 0 1 1 1024 0 512 512 0 1 1-1024 0ZM679.05536 597.7088c99.96288-99.98336 99.96288-262.06208 0-362.04544a264.3968 264.3968 0 0 0-0.14336-0.14336c0.90112-0.7168 1.78176-1.49504 2.62144-2.33472l72.41728-72.3968a30.72 30.72 0 0 0-43.45856-43.45856l-72.3968 72.41728a30.65856 30.65856 0 0 0-6.144 8.72448c-98.6112-60.66176-229.4784-48.27136-314.94144 37.19168-99.96288 99.98336-99.96288 262.06208 0 362.04544 99.98336 99.98336 262.06208 99.98336 362.04544 0z m-43.43808-43.43808A194.56 194.56 0 1 1 360.448 279.12192a194.56 194.56 0 0 1 275.1488 275.1488z"  horiz-adv-x="1024" />

    
    <glyph glyph-name="VRanli" unicode="&#59457;" d="M512 384m-512 0a512 512 0 1 1 1024 0 512 512 0 1 1-1024 0ZM512 384m-426.666667 0a426.666667 426.666667 0 1 1 853.333334 0 426.666667 426.666667 0 1 1-853.333334 0ZM284.663467 541.661867c-5.495467-0.699733-10.308267-2.090667-15.803734-3.4816l6.869334 16.008533c7.560533 18.090667 24.7296 31.317333 44.6464 33.399467 3.4304 0.699733 6.869333 0.699733 10.299733 1.390933A1964.219733 1964.219733 0 0 0 512 597.333333c60.4416 0 121.5744-2.781867 182.016-9.045333 2.747733 0 6.178133-0.699733 10.299733-1.390933 19.9168-2.090667 36.394667-14.6176 44.637867-33.408l6.869333-16.008534a105.4976 105.4976 0 0 1-15.786666 3.4816c-75.562667 9.745067-151.799467 13.909333-227.345067 13.909334-76.2368 0.708267-152.482133-4.164267-228.027733-13.2096zM793.6 346.794667c0-39.671467-3.4304-80.042667-10.299733-120.405334-4.1216-24.354133-23.355733-43.144533-47.394134-45.9264-43.264-4.864-72.797867-8.354133-87.227733-9.736533-17.169067-1.399467-39.150933 23.6544-59.067733 45.226667-24.0384 26.453333-48.768 54.289067-77.610667 54.289066-28.842667 0-53.572267-27.835733-77.610667-54.289066-19.9168-21.572267-42.581333-46.626133-59.067733-45.226667-14.421333 1.3824-43.9552 4.1728-87.227733 9.736533-24.0384 2.781867-43.9552 21.572267-47.394134 45.934934A718.7712 718.7712 0 0 0 230.4 346.794667c0 40.362667 3.438933 80.725333 10.299733 121.088 0.682667 2.781867 1.373867 4.864 2.065067 7.6544l4.1216 10.436266a53.521067 53.521067 0 0 0 41.207467 27.835734c74.180267 9.045333 149.725867 13.917867 223.906133 13.917866 74.180267 0 149.725867-4.864 223.914667-13.909333a53.512533 53.512533 0 0 0 41.198933-27.844267l2.747733-6.9632 1.3824-3.473066c0.682667-2.781867 1.365333-4.872533 2.056534-7.6544A720.776533 720.776533 0 0 0 793.6 346.794667zM463.9232 364.202667c0 48.017067-38.459733 86.9888-85.853867 86.9888S292.215467 412.2112 292.215467 364.202667c0-48.0256 38.459733-86.997333 85.853866-86.997334s85.845333 38.971733 85.845334 86.997334z m267.861333 0c0 48.017067-38.459733 86.9888-85.845333 86.9888-47.402667 0-85.8624-38.971733-85.8624-86.9888 0-48.0256 38.459733-86.997333 85.853867-86.997334s85.853867 38.971733 85.853866 86.997334z m-85.845333 59.153066c-32.290133 0-58.385067-26.453333-58.385067-59.153066 0-32.708267 26.094933-59.153067 58.376534-59.153067 32.2816 0 58.385067 26.4448 58.385066 59.153067s-26.103467 59.153067-58.385066 59.153066z m-209.493333-59.153066c0-32.708267-26.094933-59.153067-58.376534-59.153067-32.2816 0-58.385067 26.4448-58.385066 59.153067s26.103467 59.153067 58.385066 59.153066c32.2816 0 58.385067-26.453333 58.385067-59.153066z"  horiz-adv-x="1024" />

    
    <glyph glyph-name="weixin" unicode="&#59456;" d="M397.824 725.265067c143.701333 0 269.9264-86.8352 313.924267-214.4256l2.116266-6.314667 8.533334-31.4368a248.7296 248.7296 0 0 1-55.808-6.724267l-5.666134 20.923734c-33.723733 105.233067-140.0832 179.780267-263.099733 179.780266-152.132267 0-274.1248-112.776533-274.1248-249.924266 0-71.9872 33.655467-139.264 91.648-186.4704l5.5296-4.369067 16.213333-12.526933-18.295466-57.9584 64.273066 33.962666 11.1616-4.096c33.245867-12.356267 68.266667-18.602667 103.594667-18.500266 21.1968 0 42.325333 2.218667 63.0784 6.656 8.533333 1.809067 23.210667 8.2944 43.281067 19.319466 6.314667-18.295467 15.223467-35.498667 26.282666-51.234133-24.7808-13.653333-43.963733-21.981867-58.504533-25.088a352.768 352.768 0 0 0-177.937067 7.714133l-6.826666 2.2528-83.3536-44.032c-17.237333-9.1136-38.229333-2.798933-48.2304 14.5408l-1.399467 2.6624a40.516267 40.516267 0 0 0-2.9696 26.350934l0.887467 3.310933 19.899733 62.976-0.785067 0.682667c-63.146667 55.842133-100.864 133.154133-102.912 216.644266L68.266667 417.109333c0 171.076267 148.2752 308.155733 329.557333 308.155734z m-117.077333-188.0064c20.411733 0 36.932267-17.408 36.932266-38.8096 0-21.435733-16.520533-38.8096-36.932266-38.8096-20.411733 0-36.9664 17.408-36.9664 38.8096 0 21.435733 16.554667 38.8096 36.9664 38.8096z m226.338133 0c20.411733 0 36.9664-17.408 36.9664-38.8096 0-21.435733-16.554667-38.8096-36.9664-38.8096s-36.932267 17.408-36.932267 38.8096c0 21.435733 16.520533 38.8096 36.932267 38.8096zM724.138667 473.088c126.737067 0 230.946133-94.958933 230.946133-214.289067 0-50.926933-19.182933-98.850133-52.974933-136.669866l-4.1984-4.573867 15.1552-49.664c5.870933-19.285333-3.3792-40.0384-21.230934-47.7184l-2.730666-1.024a35.362133 35.362133 0 0 0-28.330667 2.491733l-62.532267 34.2016-4.983466-1.570133a245.896533 245.896533 0 0 0-60.381867-9.6256l-8.738133-0.1024c-126.737067 0-230.946133 94.958933-230.946134 214.254933 0 119.330133 104.209067 214.289067 230.946134 214.289067z m0-58.197333c-97.723733 0-175.5136-70.894933-175.5136-156.091734 0-85.1968 77.789867-156.0576 175.616-156.0576a193.399467 193.399467 0 0 1 67.413333 11.946667l11.332267 4.1984 43.588266-23.825067-12.4928 40.925867 14.165334 12.561067c32.8704 29.184 51.4048 68.539733 51.4048 110.250666 0 85.1968-77.755733 156.091733-175.5136 156.091734z m-83.1488-87.313067c15.325867 0 27.716267-13.038933 27.716266-29.0816 0-16.0768-12.3904-29.115733-27.716266-29.115733-15.291733 0-27.682133 13.038933-27.682134 29.115733 0 16.042667 12.3904 29.0816 27.682134 29.0816z m173.226666 0c15.291733 0 27.716267-13.038933 27.716267-29.0816 0-16.0768-12.424533-29.115733-27.716267-29.115733-15.291733 0-27.716267 13.038933-27.716266 29.115733 0 16.042667 12.424533 29.0816 27.716266 29.0816z"  horiz-adv-x="1024" />

    
    <glyph glyph-name="guolvrenyuanguanli1" unicode="&#59455;" d="M512 384m-512 0a512 512 0 1 1 1024 0 512 512 0 1 1-1024 0ZM491.06944 680.96a172.70784 172.70784 0 1 0 0-345.43616 194.10944 194.10944 0 0 1-194.10944-194.08896 30.72 30.72 0 1 0-61.44 0c0 102.64576 60.53888 191.16032 147.84512 231.79264A172.70784 172.70784 0 0 0 491.06944 680.96zM706.56 199.68a30.72 30.72 0 0 0 0-61.44h-143.36a30.72 30.72 0 0 0 0 61.44h143.36z m-61.44 102.4a30.72 30.72 0 0 0 0-61.44h-81.92a30.72 30.72 0 0 0 0 61.44h81.92z m-154.05056 317.44a111.26784 111.26784 0 1 1 0-222.55616 111.26784 111.26784 0 0 1 0 222.55616z"  horiz-adv-x="1024" />

    
    <glyph glyph-name="lianjietiaozhuan" unicode="&#59454;" d="M511.521032 879.483871c273.374968 0 494.988387-221.621677 494.988387-495.004903 0-273.374968-221.613419-494.988387-494.988387-494.988387C238.137806-110.517677 16.516129 111.095742 16.516129 384.47071 16.516129 657.862194 238.137806 879.483871 511.521032 879.483871zM511.521032 896C229.012645 896 0 666.987355 0 384.478968c0-282.500129 229.012645-511.504516 511.521032-511.504516 282.500129 0 511.504516 229.004387 511.504516 511.504516C1023.033806 666.987355 794.029419 896 511.52929 896z m0-16.516129c273.374968 0 494.988387-221.621677 494.988387-495.004903 0-273.374968-221.613419-494.988387-494.988387-494.988387C238.137806-110.517677 16.516129 111.095742 16.516129 384.47071 16.516129 657.862194 238.137806 879.483871 511.521032 879.483871zM669.555613 343.527226L465.721806 211.637677a49.548387 49.548387 0 0 0-76.469677 41.595871V517.012645a49.548387 49.548387 0 0 0 76.469677 41.604129l203.833807-131.889548a49.548387 49.548387 0 0 0 0-83.2z"  horiz-adv-x="1024" />

    
    <glyph glyph-name="gongzuotai-shezhi" unicode="&#59453;" d="M0 896m327.68 0l368.64 0q327.68 0 327.68-327.68l0-368.64q0-327.68-327.68-327.68l-368.64 0q-327.68 0-327.68 327.68l0 368.64q0 327.68 327.68 327.68ZM440.89344 616.3968l0.64512-0.6144c21.05344-18.80064 46.99136-34.73408 69.84704-34.73408 22.95808 0 50.88256 17.09056 70.15424 35.0208l0.96256 0.75776a11.93984 11.93984 0 0 0 10.40384 1.0752l0.41984-0.17408 78.1824-45.89568-0.57344 0.512c3.09248-2.3552 4.98688-7.4752 4.16768-10.99776-5.79584-27.6992-6.53312-58.9312 4.8128-78.8992 11.43808-19.73248 38.01088-34.57024 64.59392-43.83744 3.91168-1.24928 7.64928-5.5808 8.32512-9.40032l0.4096-2.27328 0.36864-2.36544c0.24576-1.67936 0.512-3.52256 0.75776-5.45792l0.75776-6.03136c1.29024-11.0592 2.06848-21.43232 2.06848-29.48096 0-3.584-0.16384-7.72096-0.49152-12.27776-0.28672-3.96288-0.68608-8.15104-1.1776-12.53376l-1.06496-8.63232-1.37216-10.33216-0.22528-1.83296c-0.7168-3.80928-4.44416-8.1408-7.80288-9.20576-25.1392-7.96672-53.7088-23.92064-65.13664-44.02176-11.35616-19.968-10.61888-51.2-4.9152-78.46912l0.2048-1.25952c0.33792-3.42016-0.96256-7.0656-3.14368-9.216l-0.49152-0.41984-79.06304-46.41792-0.4608-0.12288a13.9264 13.9264 0 0 0-2.72384-0.37888c-2.57024 0-5.50912 1.1264-6.9632 2.5088-21.54496 19.2512-47.45216 35.16416-70.31808 35.16416-22.94784 0-50.85184-17.07008-70.144-35.01056l-0.96256-0.75776a11.91936 11.91936 0 0 0-10.40384-1.0752l-0.39936 0.16384-78.21312 45.91616 0.57344-0.512c-3.08224 2.3552-4.97664 7.45472-4.15744 10.97728 5.79584 27.6992 6.52288 58.94144-4.82304 78.90944-11.43808 19.72224-38.01088 34.57024-64.58368 43.83744-3.91168 1.24928-7.64928 5.5808-8.33536 9.39008l-0.256 1.41312-0.06144 0.23552-0.82944 5.632-0.768 5.7856a420.9664 420.9664 0 0 0-0.36864 3.072c-1.30048 11.0592-2.07872 21.43232-2.07872 29.47072 0 3.59424 0.17408 7.72096 0.50176 12.27776 0.28672 3.96288 0.67584 8.15104 1.16736 12.53376l0.63488 5.38624 2.02752 15.42144h0.03072c0.68608 3.80928 4.42368 8.1408 7.7824 9.19552 25.16992 7.9872 53.7088 23.93088 65.1264 44.032 11.3664 19.968 10.62912 51.2 4.92544 78.46912l-0.2048 1.25952c-0.33792 3.40992 0.96256 7.0656 3.14368 9.216l0.49152 0.43008 79.13472 46.51008-0.63488-0.21504c3.14368 1.39264 8.22272 0.512 10.52672-1.72032z m27.93472 29.94176l0.64512-0.6144c-14.36672 13.99808-37.376 17.9712-55.71584 9.8304l-1.06496-0.47104-81.29536-47.77984-1.93536-1.16736-1.4848-1.00352c-16.26112-11.95008-24.07424-33.47456-19.52768-53.0432 3.60448-17.28512 4.15744-41.13408-0.53248-49.39776-4.49536-7.89504-24.15616-19.11808-39.7312-24.50432l-2.19136-0.7168c-17.9712-5.70368-32.3584-22.3744-35.70688-41.03168l-0.32768-1.792-0.0512-0.99328-1.35168-9.69728-0.78848-6.13376c-0.80896-6.63552-1.44384-12.97408-1.88416-19.00544-0.38912-5.46816-0.60416-10.5472-0.60416-15.21664 0-4.7616 0.26624-10.56768 0.70656-16.60928l0.4096-5.2224 0.78848-8.40704 0.59392-5.39648 0.6144-5.0688 0.95232-6.68672 0.3072-1.91488 0.64512-3.52256c3.328-18.66752 17.7152-35.328 35.69664-41.03168 16.86528-5.888 37.33504-17.32608 42.00448-25.37472 4.4032-7.74144 4.096-29.82912 0.82944-47.23712l-0.48128-2.4576c-4.4032-18.92352 3.54304-40.36608 19.3536-52.38784l0.9728-0.74752 83.31264-48.896 3.05152-1.23904c17.36704-7.168 38.48192-4.05504 52.96128 8.16128l1.85344 1.6384c12.02176 11.18208 32.9728 23.99232 42.19904 23.99232 9.14432 0 28.93824-12.15488 42.56768-24.32 8.72448-8.31488 21.8112-13.35296 34.7136-13.35296 6.0416 0 12.36992 1.2288 17.95072 3.1232l1.98656 0.6656 82.75968 48.5888 1.96608 1.19808 1.46432 0.9728c15.63648 11.48928 23.45984 31.82592 20.00896 50.78016l-0.47104 2.26304c-3.60448 17.29536-4.16768 41.14432 0.53248 49.408 4.48512 7.8848 24.1664 19.12832 39.72096 24.49408l2.19136 0.72704c17.98144 5.70368 32.36864 22.36416 35.71712 41.03168l0.31744 1.792v1.3312l0.0512-0.33792 1.35168 9.69728 0.78848 6.13376c0.8192 6.62528 1.45408 12.96384 1.88416 18.9952 0.39936 5.46816 0.6144 10.5472 0.6144 15.21664l-0.02048 2.10944a221.87008 221.87008 0 0 1-0.3072 8.57088l-0.4096 6.22592-0.512 6.38976-0.6144 6.36928-0.6656 6.13376-0.69632 5.70368-0.7168 5.07904-0.34816 2.23232-0.7168 4.02432c-3.34848 18.66752-17.73568 35.328-35.71712 41.02144-16.85504 5.89824-37.33504 17.32608-41.99424 25.37472-4.4032 7.75168-4.096 29.82912-0.83968 47.24736l0.49152 2.4576c4.21888 18.16576-2.93888 38.64576-17.50016 50.8928l-2.83648 2.24256-83.28192 48.88576-3.04128 1.23904c-17.39776 7.168-38.52288 4.06528-53.00224-8.1408l-1.8432-1.64864c-12.02176-11.18208-32.9728-24.00256-42.20928-24.00256-7.0656 0-20.49024 7.2704-32.512 16.1792l-4.17792 3.20512c-2.048 1.62816-4.01408 3.2768-5.86752 4.94592zM512.0512 517.12a20.48 20.48 0 1 0 0-40.96c-49.33632 0-89.9072-41.51296-89.9072-92.22144 0-50.7392 40.27392-91.87328 89.9072-91.87328 49.34656 0 89.92768 41.51296 89.92768 92.2112a20.48 20.48 0 1 0 40.96 0c0-73.1136-58.70592-133.1712-130.88768-133.1712-72.448 0-130.8672 59.65824-130.8672 132.83328 0 73.1136 58.69568 133.18144 130.8672 133.18144z m79.21664-27.19744a133.0688 133.0688 0 0 0 24.22784-24.40192 20.48 20.48 0 0 0-32.54272-24.87296 92.1088 92.1088 0 0 1-16.76288 16.896 20.48 20.48 0 1 0 25.088 32.37888z"  horiz-adv-x="1024" />

    
    <glyph glyph-name="kehuguanlishezhi" unicode="&#59452;" d="M512 384m-512 0a512 512 0 1 1 1024 0 512 512 0 1 1-1024 0ZM661.7088 381.8496a47.3088 47.3088 0 0 0 48.45568 9.37984c14.9504-5.57056 28.85632-13.37344 41.32864-23.20384 14.336-11.264 20.82816-29.77792 16.5888-47.5136a6.71744 6.71744 0 0 1 0.67584-4.93568c1.00352-1.6384 2.8672-3.072 5.12-3.74784a46.8992 46.8992 0 0 0 33.13664-37.43744c1.29024-7.90528 1.9456-15.7696 1.9456-23.53152 0-7.72096-0.65536-15.60576-1.9456-23.51104a46.8992 46.8992 0 0 0-33.13664-37.43744 8.86784 8.86784 0 0 1-5.09952-3.72736 6.7584 6.7584 0 0 1-0.7168-4.93568 46.65344 46.65344 0 0 0-16.62976-47.57504 153.9072 153.9072 0 0 0-41.2672-23.1424 47.3088 47.3088 0 0 0-48.5376 9.4208 8.8064 8.8064 0 0 1-6.26688 2.31424 9.76896 9.76896 0 0 1-6.41024-2.4576 47.3088 47.3088 0 0 0-48.39424-9.29792 153.6 153.6 0 0 0-41.28768 23.20384 46.65344 46.65344 0 0 0-16.54784 47.67744 5.89824 5.89824 0 0 1-0.73728 4.75136 8.94976 8.94976 0 0 1-5.14048 3.76832 46.8992 46.8992 0 0 0-33.13664 37.41696 146.55488 146.55488 0 0 0-1.9456 23.552c0 7.74144 0.65536 15.62624 1.9456 23.552a46.8992 46.8992 0 0 0 33.11616 37.39648 8.88832 8.88832 0 0 1 5.12 3.72736 6.7584 6.7584 0 0 1 0.7168 4.95616c-4.25984 17.73568 2.2528 36.2496 16.56832 47.5136a153.74336 153.74336 0 0 0 41.2672 23.20384 47.3088 47.3088 0 0 0 48.45568-9.29792c1.67936-1.536 4.07552-2.4576 6.41024-2.4576a8.94976 8.94976 0 0 1 6.3488 2.37568zM491.06944 721.92a172.70784 172.70784 0 1 0 0-345.43616 194.10944 194.10944 0 0 1-194.10944-194.08896 30.72 30.72 0 1 0-61.44 0c0 102.64576 60.53888 191.16032 147.84512 231.79264A172.70784 172.70784 0 0 0 491.06944 721.92z m123.88352-391.24992l-3.39968-1.6384a91.9552 91.9552 0 0 1-4.95616-2.80576l-2.60096-1.65888 0.2048-2.78528a68.1984 68.1984 0 0 0-7.33184-33.73056l-2.12992-3.87072a69.79584 69.79584 0 0 0-28.30336-26.4192l-3.03104-1.41312-0.08192-1.024-0.12288-4.46464c0-1.45408 0.04096-2.94912 0.12288-4.44416l0.08192-1.00352 3.03104-1.4336c10.40384-5.30432 19.37408-13.1072 26.0096-22.7328l2.3552-3.70688a67.3792 67.3792 0 0 0 9.50272-37.5808l-0.22528-2.78528 2.53952-1.6384c1.6384-1.00352 3.2768-1.92512 4.97664-2.80576l3.3792-1.61792 3.09248 2.00704a71.33184 71.33184 0 0 0 32.91136 10.4448L655.36 183.7056c13.39392 0 26.23488-3.66592 37.33504-10.5472l3.072-2.02752 3.35872 1.59744c1.69984 0.88064 3.35872 1.80224 4.97664 2.78528l2.58048 1.69984-0.2048 2.74432a68.1984 68.1984 0 0 0 7.35232 33.75104l2.12992 3.87072a69.77536 69.77536 0 0 0 28.32384 26.4192l3.01056 1.41312 0.1024 1.024 0.12288 4.42368c0 1.47456-0.04096 2.94912-0.12288 4.46464l-0.1024 1.024-3.01056 1.41312a70.0416 70.0416 0 0 0-25.96864 22.7328l-2.37568 3.6864a68.05504 68.05504 0 0 0-9.4208 37.60128l0.18432 2.80576-2.58048 1.6384a91.7504 91.7504 0 0 1-4.95616 2.78528l-3.39968 1.6384-3.072-2.06848a70.3488 70.3488 0 0 0-32.89088-10.40384l-4.44416-0.14336a71.2704 71.2704 0 0 0-37.31456 10.58816l-3.09248 2.048zM655.36 289.19808a40.96 40.96 0 1 0 0-81.92 40.96 40.96 0 0 0 0 81.92zM491.06944 660.48a111.26784 111.26784 0 1 1 0-222.55616 111.26784 111.26784 0 0 1 0 222.55616z"  horiz-adv-x="1024" />

    
    <glyph glyph-name="shaixuan1" unicode="&#59449;" d="M0 896m512 0l0 0q512 0 512-512l0 0q0-512-512-512l0 0q-512 0-512 512l0 0q0 512 512 512ZM676.065882 624.941176a82.823529 82.823529 0 0 0 65.099294-134.023529l-2.529882-3.072-121.675294-140.288a22.588235 22.588235 0 0 0-35.553882 27.768471l1.415529 1.822117 121.675294 140.303059a37.647059 37.647059 0 0 1-25.946353 62.238118L676.065882 579.764706H338.823529a37.647059 37.647059 0 0 1-29.967058-60.416l1.686588-2.078118L477.515294 327.273412a37.647059 37.647059 0 0 0 9.246118-21.805177l0.135529-3.041882V150.588235a22.588235 22.588235 0 0 0-45.086117-2.16847l-0.090353 2.16847v148.992L276.600471 487.439059a82.823529 82.823529 0 0 0 4.818823 114.386823l2.710588 2.499765a82.823529 82.823529 0 0 0 50.657883 20.525177L338.823529 624.941176h337.242353z m-11.083294-414.117647a22.588235 22.588235 0 0 0 0-45.17647h-60.235294a22.588235 22.588235 0 1 0 0 45.17647h60.235294z m0 75.294118a22.588235 22.588235 0 0 0 0-45.176471h-60.235294a22.588235 22.588235 0 1 0 0 45.176471h60.235294z"  horiz-adv-x="1024" />

    
    <glyph glyph-name="xingbiao2" unicode="&#59451;" d="M0 896m512 0l0 0q512 0 512-512l0 0q0-512-512-512l0 0q-512 0-512 512l0 0q0 512 512 512ZM465.046588 625.558588a52.118588 52.118588 0 0 0 92.29553 3.056941l1.611294-3.056941L614.4 511.698824l123.919059-18.266353c27.663059-4.065882 46.983529-29.214118 44.528941-56.816942l-0.331294-2.861176a52.871529 52.871529 0 0 0-12.784941-27.602824l-2.364236-2.499764-89.840941-88.696471 21.232941-125.394823c4.668235-27.632941-12.950588-54.031059-39.860705-60.235295l-2.816-0.557176a51.952941 51.952941 0 0 0-30.223059 3.809882l-3.117177 1.536-75.12847 40.026353a22.588235 22.588235 0 0 0 19.275294 40.809412l1.957647-0.948706 75.143529-40.011294a6.776471 6.776471 0 0 1 4.367059-0.707765 7.424 7.424 0 0 1 5.963294 7.363765l-0.105412 1.370353-21.865411 129.159529a37.797647 37.797647 0 0 0 8.734117 31.096471l1.942589 2.063059 92.596705 91.467294a7.68 7.68 0 0 1 2.168471 4.367059 7.559529 7.559529 0 0 1-4.818824 8.267294l-1.234823 0.301176-127.969882 18.853647a37.436235 37.436235 0 0 0-26.955295 18.356706l-1.249882 2.334118-57.223529 117.504a7.333647 7.333647 0 0 1-3.297883 3.358118 6.896941 6.896941 0 0 1-8.704-2.228706l-0.677647-1.129412-57.223529-117.504a37.481412 37.481412 0 0 0-25.6-20.224l-2.605177-0.466824-127.969882-18.853647a6.987294 6.987294 0 0 1-4.020706-2.093176 7.830588 7.830588 0 0 1-0.752941-9.803294l0.888471-1.054118 92.596705-91.452235c8.071529-7.981176 12.077176-19.154824 11.038118-30.358588l-0.361412-2.800942-21.865411-129.159529a7.875765 7.875765 0 0 1 0.752941-4.924235c1.656471-3.192471 5.165176-4.592941 8.31247-3.599059l0.602353 0.271059 154.127059 102.912a22.588235 22.588235 0 0 0 30.042353-4.48753l1.295059-1.761882a22.588235 22.588235 0 0 0-4.48753-30.027294l-1.761882-1.295059-155.497412-103.845647-1.927529-1.144471a52.103529 52.103529 0 0 0-70.791529 22.166589 53.037176 53.037176 0 0 0-5.722353 29.485176l0.512 3.794824 21.217882 125.379764-89.825882 88.71153a53.007059 53.007059 0 0 0-3.011765 72.041411l2.063059 2.273883a52.193882 52.193882 0 0 0 26.593882 14.848l3.403294 0.617412 123.904 18.266353 55.461647 113.859764z"  horiz-adv-x="1024" />

    
    <glyph glyph-name="jinchuhuojilu" unicode="&#59448;" d="M512 384m-512 0a512 512 0 1 1 1024 0 512 512 0 1 1-1024 0ZM320.512 660.48a30.72 30.72 0 0 0 2.94912-61.29664l-2.9696-0.14336h-19.1488a4.38272 4.38272 0 0 1-4.21888-3.21536l-0.16384-1.16736v-421.31456c0-2.00704 1.37216-3.70688 3.21536-4.21888l1.16736-0.16384h421.31456a4.38272 4.38272 0 0 1 4.21888 3.21536l0.16384 1.16736V594.65728a4.38272 4.38272 0 0 1-3.21536 4.21888l-1.16736 0.16384h-15.36a30.72 30.72 0 0 0-2.9696 61.29664l2.9696 0.14336h15.36a65.82272 65.82272 0 0 0 65.72032-62.09536l0.1024-3.72736v-421.31456a65.82272 65.82272 0 0 0-62.09536-65.72032l-3.72736-0.1024H301.34272a65.82272 65.82272 0 0 0-65.72032 62.09536l-0.1024 3.72736V594.65728a65.82272 65.82272 0 0 0 62.09536 65.72032l3.72736 0.1024h19.1488zM512 448.96256a30.72 30.72 0 0 0-30.72 30.72v65.67936l-5.48864-5.48864a30.72 30.72 0 0 0-43.43808 43.43808l57.91744 57.93792a30.72 30.72 0 0 0 43.45856 0l57.91744-57.93792a30.72 30.72 0 0 0-43.43808-43.43808l-5.48864 5.48864v-65.67936a30.72 30.72 0 0 0-30.72-30.72zM512 404.48a30.72 30.72 0 0 1-30.72-30.72v-65.67936l-5.48864 5.48864a30.72 30.72 0 0 1-43.43808-43.45856l57.91744-57.91744a30.72 30.72 0 0 1 43.45856 0l57.91744 57.91744a30.72 30.72 0 0 1-43.43808 43.45856l-5.48864-5.48864V373.76A30.72 30.72 0 0 1 512 404.48z"  horiz-adv-x="1024" />

    
    <glyph glyph-name="shangpingongyingshang" unicode="&#59446;" d="M512 384m-512 0a512 512 0 1 1 1024 0 512 512 0 1 1-1024 0ZM626.09408 680.96a182.86592 182.86592 0 0 0 182.784-177.4592l0.08192-5.40672v-39.81312a30.72 30.72 0 0 0-61.29664-2.9696l-0.14336 2.9696v39.81312c0 65.536-51.9168 118.94784-116.85888 121.344l-4.56704 0.08192H397.9264a121.42592 121.42592 0 0 1-121.344-116.85888l-0.08192-4.56704V269.9264c0-65.536 51.9168-118.94784 116.85888-121.344l4.56704-0.08192H626.0736c65.536 0 118.94784 51.9168 121.344 116.85888l0.08192 4.56704v74.60864a30.72 30.72 0 0 0 61.29664 2.9696l0.14336-2.9696v-74.60864a182.86592 182.86592 0 0 0-177.4592-182.784l-5.40672-0.08192H397.9264a182.86592 182.86592 0 0 0-182.784 177.4592l-0.08192 5.40672V498.0736a182.86592 182.86592 0 0 0 177.4592 182.784l5.40672 0.08192H626.0736z m8.78592-204.8a30.72 30.72 0 0 0 30.57664-27.77088L665.6 445.44v-40.96a153.6 153.6 0 0 0-307.11808-4.97664L358.4 404.48v40.96a30.72 30.72 0 0 0 61.29664 2.94912L419.84 445.44v-40.96a92.16 92.16 0 0 1 184.2176-4.34176L604.16 404.48v40.96a30.72 30.72 0 0 0 30.72 30.72z"  horiz-adv-x="1024" />

    
    <glyph glyph-name="shujushibao2" unicode="&#59445;" d="M0 896m327.68 0l368.64 0q327.68 0 327.68-327.68l0-368.64q0-327.68-327.68-327.68l-368.64 0q-327.68 0-327.68 327.68l0 368.64q0 327.68 327.68 327.68ZM633.856 629.76c26.95168 0 48.7424-21.57568 49.89952-48.41472l0.0512-2.2528-0.01024-144.27136h51.57888c28.42624 0 51.87584-21.92384 53.05344-49.74592l0.0512-2.21184v-169.44128a70.0416 70.0416 0 0 0-21.58592-50.50368 73.70752 73.70752 0 0 0-51.24096-20.51072h0.01024-391.86432a67.19488 67.19488 0 0 0-48.128 20.36736 69.48864 69.48864 0 0 0-19.6096 45.568L256 211.3536V579.09248c0 27.11552 21.06368 49.42848 47.7184 50.61632l2.23232 0.0512H633.856z m0-40.96H305.95072c-4.5056 0-8.3968-3.65568-8.92928-8.56064l-0.06144-1.14688v-367.74912c0-7.51616 2.89792-14.71488 8.02816-19.968a26.3168 26.3168 0 0 1 16.70144-7.91552l2.0992-0.09216h325.85728a69.3248 69.3248 0 0 0-6.79936 30.03392V579.09248c0 5.07904-3.56352 9.09312-7.95648 9.64608L633.856 588.8z m101.51936-194.93888h-51.57888v-180.50048a29.07136 29.07136 0 0 1 9.04192-20.96128 32.77824 32.77824 0 0 1 22.82496-9.03168 32.78848 32.78848 0 0 1 22.79424 9.03168c5.8368 5.632 9.07264 13.16864 9.0624 20.992V382.8736c0 5.90848-5.2736 10.99776-12.14464 10.99776z m-175.2064 166.11328c24.22784-0.0512 44.87168-17.99168 45.12768-41.99424v-83.46624c-0.57344-23.3472-21.1968-40.6528-45.02528-40.6528h-180.6336c-24.18688 0.0512-44.81024 17.94048-45.12768 41.984v82.05312c0 23.808 20.64384 41.9328 44.93312 42.0864z m-0.04096-40.96H379.6992a8.0896 8.0896 0 0 1-3.66592-0.78848l-0.57344-0.32768v-81.78688c0-0.12288 1.35168-1.28 4.22912-1.29024h180.5824c2.83648 0 4.08576 1.04448 4.06528 0.19456v82.7392c0 0.09216-1.3312 1.25952-4.20864 1.25952zM494.55104 314.2144a20.48 20.48 0 1 0 0-40.96H358.02112a20.48 20.48 0 1 0 0 40.96h136.52992z m87.23456 0a20.48 20.48 0 1 0 0-40.96h-2.6624a20.48 20.48 0 1 0 0 40.96h2.6624z"  horiz-adv-x="1024" />

    
    <glyph glyph-name="gongzuobaogao" unicode="&#59444;" d="M801.5872 715.1616H274.2272a21.060267 21.060267 0 0 1-16.145067-7.9872 22.391467 22.391467 0 0 1-4.608-17.749333 20.309333 20.309333 0 0 1 19.456-18.8416h528.657067c23.483733 0 42.5984-19.729067 42.5984-43.963734v-21.981866H268.151467c-46.523733-0.7168-85.4016 36.283733-88.337067 84.241066a89.941333 89.941333 0 0 0 22.7328 66.3552 83.899733 83.899733 0 0 0 62.5664 27.921067h472.029867a22.4256 22.4256 0 0 1 18.3296 22.289067c0 11.025067-7.748267 20.445867-18.3296 22.289066H265.1136A127.419733 127.419733 0 0 1 173.738667 788.0704 135.918933 135.918933 0 0 1 136.533333 693.248v-664.3712C136.533333-20.0704 175.035733-59.733333 222.4128-59.733333h579.1744c47.3088 0.3072 85.504 39.765333 85.879467 88.644266V626.517333c-0.3072 48.776533-38.570667 88.234667-85.879467 88.644267z m-282.5216-597.504h-198.314667c-15.701333 0-28.330667 13.312-28.330666 29.559467 0 16.349867 12.765867 29.525333 28.330666 29.525333h198.314667c15.6672 0 28.296533-13.312 28.296533-29.525333 0.1024-16.384-12.629333-29.559467-28.330666-29.559467z m-226.645333 177.493333c0 16.384 12.765867 29.559467 28.330666 29.559467h141.687467c15.701333 0 28.330667-13.312 28.330667-29.559467 0-16.384-12.731733-29.559467-28.330667-29.559466H320.750933c-15.701333 0-28.330667 13.2096-28.330666 29.559466z m311.637333 118.306134h-283.306667c-15.701333 0-28.330667 13.277867-28.330666 29.525333 0 16.384 12.765867 29.559467 28.330666 29.559467H604.16c15.6672 0 28.296533-13.312 28.296533-29.559467s-12.731733-29.525333-28.398933-29.525333z"  horiz-adv-x="1024" />

    
    <glyph glyph-name="chu" unicode="&#59441;" d="M0 896m136.533333 0l750.933334 0q136.533333 0 136.533333-136.533333l0-750.933334q0-136.533333-136.533333-136.533333l-750.933334 0q-136.533333 0-136.533333 136.533333l0 750.933334q0 136.533333 136.533333 136.533333ZM250.6752 0.6144v45.8752h522.6496v-45.8752h59.8016V326.656h-59.8016v-223.6416h-231.0144v300.6464h250.6752V684.6464h-58.9824v-223.6416h-191.6928V746.9056h-60.6208v-285.9008H289.9968V684.6464H231.0144v-280.9856h250.6752v-300.6464H250.6752V326.656H190.8736v-326.0416z"  horiz-adv-x="1024" />

    
    <glyph glyph-name="tiao" unicode="&#59442;" d="M0 896m136.533333 0l750.933334 0q136.533333 0 136.533333-136.533333l0-750.933334q0-136.533333-136.533333-136.533333l-750.933334 0q-136.533333 0-136.533333 136.533333l0 750.933334q0 136.533333 136.533333 136.533333ZM326.8608 572.416l40.1408 40.96c-35.2256 40.96-78.6432 81.92-130.2528 122.88l-40.96-40.1408c54.8864-43.4176 98.304-84.3776 131.072-123.6992z m69.632-577.536c47.5136 68.8128 71.2704 158.9248 72.9088 269.5168V660.0704h331.776v-568.5248c0-27.0336-12.288-40.96-35.2256-40.96s-48.3328 0.8192-75.3664 2.4576l13.9264-54.0672h78.6432c49.152 0 73.728 24.576 73.728 72.9088V713.3184H413.696V261.12c-1.6384-90.9312-21.2992-166.2976-60.6208-226.0992l43.4176-40.1408z m374.3744 394.0352v49.152h-108.9536V515.072h95.0272V563.4048h-95.0272V628.1216H606.208v-64.7168H512v-48.3328h94.208v-77.0048h-107.3152v-49.152h271.9744zM255.5904 43.2128a965.7344 965.7344 0 0 1 128.6144 110.592l-14.7456 58.1632a1902.250667 1902.250667 0 0 0-61.44-58.1632V495.4112H136.8064v-56.5248h113.8688v-309.6576c0-13.1072-6.5536-23.7568-18.0224-33.5872l22.9376-52.4288z m487.424 78.6432v208.896h-217.9072v-208.896h217.9072z m-50.7904 48.3328h-116.3264V281.6h116.3264v-111.4112z"  horiz-adv-x="1024" />

    
    <glyph glyph-name="jin" unicode="&#59443;" d="M0 896m136.533333 0l750.933334 0q136.533333 0 136.533333-136.533333l0-750.933334q0-136.533333-136.533333-136.533333l-750.933334 0q-136.533333 0-136.533333 136.533333l0 750.933334q0 136.533333 136.533333 136.533333ZM743.0144 107.9296V343.04h130.2528v55.7056h-130.2528V561.7664h104.0384V616.6528h-104.0384V746.0864h-57.344v-129.4336h-129.4336V746.9056H499.712v-130.2528h-96.6656v-54.8864h96.6656v-64.7168c0-34.4064-2.4576-67.1744-6.5536-98.304h-118.784V343.04h108.1344c-18.0224-77.0048-53.248-134.3488-104.8576-171.2128l35.2256-47.5136c63.0784 47.5136 105.6768 120.4224 126.976 218.7264h145.8176v-235.1104h57.344zM303.9232 564.224l42.5984 41.7792c-37.6832 42.5984-84.3776 84.3776-139.264 126.976L167.1168 694.4768C225.28 647.7824 271.1552 604.3648 303.9232 564.224z m381.7472-165.4784h-135.9872c4.096 34.4064 6.5536 72.0896 6.5536 111.4112V561.7664h129.4336v-163.0208z m-487.424-405.504c45.056 75.3664 77.0048 113.0496 96.6656 113.0496 9.8304 0 20.48-6.5536 31.1296-20.48 25.3952-29.4912 54.0672-49.9712 86.016-59.8016 32.768-9.0112 74.5472-13.9264 126.976-14.7456 51.6096-0.8192 99.9424-1.6384 144.1792-1.6384h187.5968l13.9264 58.9824c-21.2992-1.6384-52.4288-2.4576-91.7504-3.2768-40.1408-0.8192-79.4624-1.6384-117.9648-1.6384a8096.426667 8096.426667 0 0 0-158.9248 1.6384c-47.5136 1.6384-84.3776 8.192-108.9536 19.6608-22.9376 10.6496-43.4176 27.8528-63.0784 51.6096a139.332267 139.332267 0 0 1-19.6608 18.8416V461.824h-172.032v-54.0672h117.1456V158.72c-33.5872-14.7456-72.0896-56.5248-115.5072-125.3376l44.2368-40.1408z"  horiz-adv-x="1024" />

    
    <glyph glyph-name="shaixuan" unicode="&#59436;" d="M799.6416 806.4a140.8 140.8 0 0 0 110.6688-227.84l-4.3008-5.2224-206.848-238.4896a38.4 38.4 0 0 0-60.4672 47.2064l2.432 3.0976 206.848 238.5152A64 64 0 0 1 803.84 729.472l-4.1984 0.128H226.304a64 64 0 0 1-50.9696-102.7072l2.8928-3.5328 283.8528-322.9952a64 64 0 0 0 15.7184-37.0688l0.2048-5.1712V0a38.4 38.4 0 0 0-76.6208-3.6864L401.2288 0v253.2864L120.576 572.6464a140.8 140.8 0 0 0 8.192 194.4576l4.608 4.2496a140.8 140.8 0 0 0 86.1184 34.8928l6.8352 0.1536h573.312zM780.8 102.4a38.4 38.4 0 0 0 0-76.8h-102.4a38.4 38.4 0 0 0 0 76.8h102.4z m0 128a38.4 38.4 0 0 0 0-76.8h-102.4a38.4 38.4 0 0 0 0 76.8h102.4z"  horiz-adv-x="1024" />

    
    <glyph glyph-name="xingbiao1" unicode="&#59437;" d="M432.1792 794.6496a88.6016 88.6016 0 0 0 156.9024 5.1968l2.7392-5.1968L686.08 601.088l210.6624-31.0528c47.0272-6.912 79.872-49.664 75.6992-96.5888l-0.5632-4.864a89.8816 89.8816 0 0 0-21.7344-46.9248l-4.0192-4.2496-152.7296-150.784 36.096-213.1712c7.936-46.976-22.016-91.8528-67.7632-102.4l-4.7872-0.9472a88.32 88.32 0 0 0-51.3792 6.4768l-5.2992 2.6112-127.7184 68.0448a38.4 38.4 0 0 0 32.768 69.376l3.328-1.6128 127.744-68.0192a11.52 11.52 0 0 1 7.424-1.2032 12.6208 12.6208 0 0 1 10.1376 12.5184l-0.1792 2.3296-37.1712 219.5712a64.256 64.256 0 0 0 14.848 52.864l3.3024 3.5072 157.4144 155.4944a13.056 13.056 0 0 1 3.6864 7.424 12.8512 12.8512 0 0 1-8.192 14.0544l-2.0992 0.512-217.5488 32.0512a63.6416 63.6416 0 0 0-45.824 31.2064l-2.1248 3.968-97.28 199.7568a12.4672 12.4672 0 0 1-5.6064 5.7088 11.7248 11.7248 0 0 1-14.7968-3.7888l-1.152-1.92-97.28-199.7568a63.7184 63.7184 0 0 0-43.52-34.3808l-4.4288-0.7936-217.5488-32.0512a11.8784 11.8784 0 0 1-6.8352-3.5584 13.312 13.312 0 0 1-1.28-16.6656l1.5104-1.792 157.4144-155.4688c13.7216-13.568 20.5312-32.5632 18.7648-51.6096l-0.6144-4.7616-37.1712-219.5712a13.3888 13.3888 0 0 1 1.28-8.3712c2.816-5.4272 8.7808-7.808 14.1312-6.1184l1.024 0.4608 262.016 174.9504a38.4 38.4 0 0 0 51.072-7.6288l2.2016-2.9952a38.4 38.4 0 0 0-7.6288-51.0464l-2.9952-2.2016-264.3456-176.5376-3.2768-1.9456a88.576 88.576 0 0 0-120.3456 37.6832 90.1632 90.1632 0 0 0-9.728 50.1248l0.8704 6.4512 36.0704 213.1456-152.704 150.8096a90.112 90.112 0 0 0-5.12 122.4704l3.5072 3.8656a88.7296 88.7296 0 0 0 45.2096 25.2416l5.7856 1.0496 210.6368 31.0528 94.2848 193.5616z"  horiz-adv-x="1024" />

    
    <glyph glyph-name="zhankai1" unicode="&#59438;" d="M402.568533 722.295467l339.729067-252.245334c46.1824-34.338133 56.593067-100.693333 23.210667-148.1728-6.4512-9.216-14.301867-17.271467-23.210667-23.893333l-339.729067-252.279467c-46.216533-34.304-110.728533-23.620267-144.110933 23.893334A108.1344 108.1344 0 0 0 238.933333 131.720533V636.245333C238.933333 694.8864 285.149867 742.4 342.1184 742.4c21.7088 0 42.837333-7.031467 60.416-20.104533z"  horiz-adv-x="1024" />

    
    <glyph glyph-name="baisetiaozhuan" unicode="&#59434;" d="M466.752-23.296a64 64 0 0 0 0 90.496L783.552 384l-316.8 316.8a64 64 0 0 0 90.496 90.496l362.048-362.048a64 64 0 0 0 0-90.496l-362.048-362.048a64 64 0 0 0-90.496 0z"  horiz-adv-x="1024" />

    
    <glyph glyph-name="paiming" unicode="&#59429;" d="M921.326933 418.133333C961.2288 418.133333 989.866667 381.610667 989.866667 340.1728v-356.078933C989.866667-57.378133 961.194667-93.866667 921.326933-93.866667h-135.9872C745.437867-93.866667 716.8-57.344 716.8-15.906133V340.1728c0 41.472 28.672 77.960533 68.539733 77.960533z m-682.666666 136.533334C278.186667 554.666667 307.2 519.099733 307.2 478.344533v-495.889066C307.2-58.299733 278.186667-93.866667 238.660267-93.866667H102.673067C63.146667-93.866667 34.133333-58.299733 34.133333-17.544533V478.344533C34.133333 519.099733 63.146667 554.666667 102.673067 554.666667z m341.333333 273.066666C619.963733 827.733333 648.533333 790.971733 648.533333 749.294933v-764.7232c0-41.642667-28.5696-78.4384-68.539733-78.4384h-135.9872C404.036267-93.866667 375.466667-57.105067 375.466667-15.428267V749.294933C375.466667 790.9376 404.036267 827.733333 444.0064 827.733333z m341.333333-477.866666h-135.9872c1.9456 0-0.273067-2.798933-0.273066-9.693867v-356.078933c0-6.894933 2.218667-9.693867 0.273066-9.693867h135.9872c-1.9456 0 0.273067 2.798933 0.273067 9.693867V340.1728c0 6.894933-2.218667 9.693867-0.273067 9.693867z m-682.666666 136.533333H102.673067c1.570133 0-0.273067-2.286933-0.273067-8.055467v-495.889066c0-5.802667 1.8432-8.055467 0.273067-8.055467h135.9872c-1.570133 0 0.273067 2.286933 0.273066 8.055467V478.344533c0 5.802667-1.8432 8.055467-0.273066 8.055467z m341.333333 273.066667h-135.9872c2.048 0-0.273067-2.9696-0.273067-10.171734v-764.7232c0-7.168 2.321067-10.171733 0.273067-10.171733h135.9872c-2.048 0 0.273067 2.9696 0.273067 10.171733V749.294933c0 7.168-2.321067 10.171733-0.273067 10.171734z"  horiz-adv-x="1024" />

    
    <glyph glyph-name="wode-xuanzhong1" unicode="&#59430;" d="M887.466667-25.6a34.133333 34.133333 0 0 0 0-68.266667H136.533333a34.133333 34.133333 0 0 0 0 68.266667h750.933334zM512 861.866667c226.2016 0 409.6-183.3984 409.6-409.6s-183.3984-409.6-409.6-409.6S102.4 226.065067 102.4 452.266667 285.7984 861.866667 512 861.866667z m102.4-546.133334h-204.8a34.133333 34.133333 0 0 1-3.9936-68.027733L409.6 247.466667h204.8a34.133333 34.133333 0 0 1 0 68.266666z"  horiz-adv-x="1024" />

    
    <glyph glyph-name="wode2" unicode="&#59431;" d="M887.466667-25.6a34.133333 34.133333 0 0 0 0-68.266667H136.533333a34.133333 34.133333 0 0 0 0 68.266667h750.933334zM512 861.866667c226.2016 0 409.6-183.3984 409.6-409.6s-183.3984-409.6-409.6-409.6S102.4 226.065067 102.4 452.266667 285.7984 861.866667 512 861.866667z m0-68.266667C323.4816 793.6 170.666667 640.785067 170.666667 452.266667s152.814933-341.333333 341.333333-341.333334 341.333333 152.814933 341.333333 341.333334S700.5184 793.6 512 793.6z m102.4-477.866667a34.133333 34.133333 0 0 0 0-68.266666h-204.8a34.133333 34.133333 0 0 0 0 68.266666h204.8z"  horiz-adv-x="1024" />

    
    <glyph glyph-name="shouye5" unicode="&#59433;" d="M469.9136 838.314667L73.591467 529.408A102.4 102.4 0 0 1 34.133333 448.580267V-25.6a68.266667 68.266667 0 0 1 68.266667-68.266667h248.900267a68.266667 68.266667 0 0 1 68.266666 68.266667v105.3696h184.866134V-25.6a68.266667 68.266667 0 0 1 68.266666-68.266667H921.6a68.266667 68.266667 0 0 1 68.266667 68.266667V448.6144a102.4 102.4 0 0 1-39.458134 80.7936L553.847467 838.314667a68.266667 68.266667 0 0 1-83.933867 0zM115.541333 475.5456l396.356267 308.906667 396.561067-308.906667a34.133333 34.133333 0 0 0 13.141333-26.9312V-25.6h-248.900267v105.3696a68.266667 68.266667 0 0 1-68.266666 68.266667h-184.866134a68.266667 68.266667 0 0 1-68.266666-68.266667V-25.6H102.4V448.6144a34.133333 34.133333 0 0 0 13.141333 26.9312z"  horiz-adv-x="1024" />

    
    <glyph glyph-name="shouye-xuanzhong1" unicode="&#59427;" d="M469.9136 838.314667L73.591467 529.408A102.4 102.4 0 0 1 34.133333 448.580267V-25.6a68.266667 68.266667 0 0 1 68.266667-68.266667h248.900267a68.266667 68.266667 0 0 1 68.266666 68.266667v105.3696h184.866134V-25.6a68.266667 68.266667 0 0 1 68.266666-68.266667H921.6a68.266667 68.266667 0 0 1 68.266667 68.266667V448.6144a102.4 102.4 0 0 1-39.458134 80.7936L553.847467 838.314667a68.266667 68.266667 0 0 1-83.933867 0z"  horiz-adv-x="1024" />

    
    <glyph glyph-name="paiming-xuanzhong" unicode="&#59428;" d="M921.326933 418.133333h-135.9872C745.437867 418.133333 716.8 381.610667 716.8 340.1728v-356.078933c0-41.472 28.672-77.960533 68.539733-77.960534h135.9872C961.2288-93.866667 989.866667-57.344 989.866667-15.906133V340.1728C989.866667 381.6448 961.194667 418.133333 921.326933 418.133333zM238.660267 554.666667H102.673067C63.146667 554.666667 34.133333 519.099733 34.133333 478.344533v-495.889066C34.133333-58.299733 63.146667-93.866667 102.673067-93.866667h135.9872C278.186667-93.866667 307.2-58.299733 307.2-17.544533V478.344533C307.2 519.099733 278.186667 554.666667 238.660267 554.666667zM579.9936 827.733333h-135.9872C404.036267 827.733333 375.466667 790.971733 375.466667 749.294933v-764.7232c0-41.642667 28.5696-78.4384 68.539733-78.4384h135.9872C619.963733-93.866667 648.533333-57.105067 648.533333-15.428267V749.294933C648.533333 790.9376 619.963733 827.733333 579.9936 827.733333z"  horiz-adv-x="1024" />

    
    <glyph glyph-name="xiaochengxumingpian" unicode="&#59415;" d="M512 384m-512 0a512 512 0 1 1 1024 0 512 512 0 1 1-1024 0ZM686.08 355.01056c56.55552 0 102.4-45.85472 102.4-102.4 0-56.55552-45.84448-102.4-102.4-102.4s-102.4 45.84448-102.4 102.4c0 56.54528 45.84448 102.4 102.4 102.4zM685.93664 578.56a81.92 81.92 0 0 0 81.92-81.92v-138.98752A132.54656 132.54656 0 0 1 686.08 385.73056c-51.13856 0-95.5392-28.83584-117.84192-71.13728H367.88224c-12.1856 0-18.2784-6.10304-18.2784-18.28864 0-11.5712 5.49888-17.65376 16.49664-18.2272l1.78176-0.0512h187.4944A133.80608 133.80608 0 0 1 552.96 252.6208c0-28.3648 8.86784-54.64064 23.97184-76.2368L358.4 176.384a81.92 81.92 0 0 0-81.92 81.92V496.64a81.92 81.92 0 0 0 81.92 81.92h327.53664z m24.73984-268.9536a34.5088 34.5088 0 0 1-18.04288-4.90496 31.92832 31.92832 0 0 1-16.64-27.71968v-48.66048a12.0832 12.0832 0 0 0-6.4512-10.32192 16.896 16.896 0 0 0-8.25344-2.19136c-8.192 0-14.70464 5.76512-14.70464 12.51328-0.01024 2.01728 0.53248 3.9936 1.57696 5.69344a14.848 14.848 0 0 0 7.33184 5.87776l1.57696 0.512-0.17408 0.01024a10.07616 10.07616 0 1 1 0.08192 20.1728 21.504 21.504 0 0 1-6.17472-1.024 34.56 34.56 0 0 1-19.79392-14.9504 31.5392 31.5392 0 0 1-4.59776-16.20992c0-18.1248 15.79008-32.69632 34.99008-32.69632a36.1472 36.1472 0 0 1 18.04288 4.63872 31.92832 31.92832 0 0 1 16.72192 27.76064v48.896a12.0832 12.0832 0 0 0 6.46144 10.31168c2.59072 1.44384 5.40672 2.18112 8.26368 2.19136 8.0896 0 14.58176-5.77536 14.58176-12.50304 0.01024-2.02752-0.53248-3.9936-1.57696-5.70368-1.6896-2.74432-4.2496-4.8128-7.2704-5.87776l-1.6384-0.512h0.16384a10.0864 10.0864 0 0 1-0.12288-20.1728c2.19136 0.03072 4.25984 0.37888 6.2464 1.024a34.53952 34.53952 0 0 1 19.7632 14.9504c2.99008 4.9152 4.56704 10.496 4.608 16.19968 0 17.58208-14.848 31.81568-33.25952 32.6656l-1.71008 0.03072zM513.6384 387.70688H367.88224c-12.1856 0-18.2784-6.0928-18.2784-18.2784 0-11.5712 5.49888-17.65376 16.49664-18.2272l1.78176-0.0512H513.6384c12.1856 0 18.2784 6.0928 18.2784 18.2784s-6.08256 18.2784-18.2784 18.2784zM675.84 527.36h-51.2a30.72 30.72 0 0 1-30.72-30.72v-51.2a30.72 30.72 0 0 1 30.72-30.72h51.2a30.72 30.72 0 0 1 30.72 30.72v51.2a30.72 30.72 0 0 1-30.72 30.72z"  horiz-adv-x="1024" />

    
    <glyph glyph-name="xiangxiashouqi" unicode="&#59414;" d="M150.562133 537.429333a51.677867 51.677867 0 0 0 0 70.826667 46.455467 46.455467 0 0 0 64.4096 3.242667l3.413334-3.242667L546.133333 265.9328l327.7824 342.357333a46.455467 46.455467 0 0 0 64.375467 3.208534l3.413333-3.242667c17.646933-18.397867 18.670933-47.581867 3.140267-67.242667l-3.106133-3.584L580.027733 159.744a46.455467 46.455467 0 0 0-64.375466-3.242667l-3.413334 3.242667L150.528 537.429333z"  horiz-adv-x="1058" />

    
    <glyph glyph-name="tianjia4" unicode="&#59412;" d="M515.072 793.6a34.133333 34.133333 0 0 0 34.133333-34.133333v-338.2272H887.466667a34.133333 34.133333 0 0 0 34.133333-34.133334v-6.212266a34.133333 34.133333 0 0 0-34.133333-34.133334l-338.261334 0.034134V8.533333a34.133333 34.133333 0 0 0-34.133333-34.133333h-6.144a34.133333 34.133333 0 0 0-34.133333 34.133333l-0.034134 338.261334H136.533333a34.133333 34.133333 0 0 0-34.133333 34.133333v6.144a34.133333 34.133333 0 0 0 34.133333 34.133333l338.2272 0.034134V759.466667a34.133333 34.133333 0 0 0 34.133334 34.133333h6.212266z"  horiz-adv-x="1024" />

    
    <glyph glyph-name="saomatianjia" unicode="&#59413;" d="M68.266667 291.362133a34.133333 34.133333 0 0 0 33.8944-30.139733l0.238933-3.9936v-108.612267l0.2048-8.874666a173.397333 173.397333 0 0 1 164.0448-165.102934l9.181867-0.238933 107.793066-0.034133 5.12 0.238933a34.133333 34.133333 0 0 0 7.168-67.754667l-3.959466-0.443733-6.724267-0.273067H275.831467a241.664 241.664 0 0 0-240.7424 220.501334l-0.7168 10.717866L34.133333 147.797333v109.397334a34.133333 34.133333 0 0 0 34.133334 34.133333z m885.589333 5.085867a34.133333 34.133333 0 0 0 35.293867-28.501333l0.443733-3.9936 0.273067-6.724267v-109.397333a241.664 241.664 0 0 0-220.501334-240.7424l-10.717866-0.7168-10.478934-0.238934h-109.397333a34.133333 34.133333 0 0 0-3.9936 68.027734l3.9936 0.238933h108.612267l8.874666 0.2048a173.397333 173.397333 0 0 1 165.102934 164.0448l0.238933 9.181867 0.034133 107.793066-0.238933 5.12a34.133333 34.133333 0 0 0 32.4608 35.703467zM682.666667 418.133333a34.133333 34.133333 0 0 0 0-68.266666H341.333333a34.133333 34.133333 0 0 0 0 68.266666h341.333334zM385.2288 861.866667a34.133333 34.133333 0 0 0 3.9936-68.027734L385.2288 793.6H276.616533l-8.874666-0.2048a173.397333 173.397333 0 0 1-165.102934-164.0448L102.4 620.168533l-0.034133-107.793066 0.238933-5.12a34.133333 34.133333 0 0 0-67.754667-7.168l-0.443733 3.959466L34.133333 510.7712V620.168533a241.664 241.664 0 0 0 220.501334 240.7424l10.717866 0.7168L275.797333 861.866667h109.397334zM748.202667 861.866667a241.664 241.664 0 0 0 240.7424-220.501334l0.7168-10.717866 0.238933-10.478934v-109.397333a34.133333 34.133333 0 0 0-68.027733-3.9936L921.6 510.7712V619.383467l-0.2048 8.874666a173.397333 173.397333 0 0 1-164.0448 165.102934L748.168533 793.6l-107.793066 0.034133-5.12-0.238933a34.133333 34.133333 0 0 0-7.168 67.754667l3.959466 0.443733 6.724267 0.273067h109.397333z"  horiz-adv-x="1024" />

    
    <glyph glyph-name="010" unicode="&#59411;" d="M136.533333 896h7611.733334a136.533333 136.533333 0 0 0 136.533333-136.533333v-750.933334a136.533333 136.533333 0 0 0-136.533333-136.533333H136.533333a136.533333 136.533333 0 0 0-136.533333 136.533333V759.466667a136.533333 136.533333 0 0 0 136.533333 136.533333z"  horiz-adv-x="7884" />

    
    <glyph glyph-name="shujushibao1" unicode="&#59410;" d="M680.96 776.533333c44.919467 0 81.237333-35.959467 83.165867-80.6912l0.085333-3.754666-0.017067-206.318934h85.9648c47.377067 0 86.459733-36.539733 88.4224-82.909866l0.085334-3.6864v-282.402134a116.736 116.736 0 0 0-35.976534-84.1728 122.845867 122.845867 0 0 0-85.4016-34.184533h0.017067-618.973867a111.9744 111.9744 0 0 0-80.213333 33.9456 115.8144 115.8144 0 0 0-32.682667 75.946667L85.333333 113.322667V692.087467C85.333333 737.28 120.439467 774.468267 164.864 776.448L168.584533 776.533333H680.96z m0-68.266666H168.584533c-7.509333 0-13.994667-6.0928-14.882133-14.267734L153.6 692.087467v-578.781867c0-12.526933 4.829867-24.5248 13.380267-33.28a43.861333 43.861333 0 0 1 27.835733-13.192533l3.498667-0.1536h508.962133a115.541333 115.541333 0 0 0-11.332267 50.056533V692.087467c0 8.465067-5.9392 15.1552-13.2608 16.0768L680.96 708.266667z m169.198933-290.7648h-85.9648v-300.834134a48.452267 48.452267 0 0 1 15.069867-34.935466 54.6304 54.6304 0 0 1 38.0416-15.0528 54.647467 54.647467 0 0 1 37.9904 15.0528c9.728 9.386667 15.121067 21.947733 15.104 34.986666V399.189333c0 9.847467-8.789333 18.3296-20.241067 18.3296z m-292.010666 242.722133c40.379733-0.085333 74.786133-29.986133 75.2128-69.9904v-104.977067c-0.955733-38.912-35.328-67.754667-75.042134-67.754666h-266.922666c-40.311467 0.085333-74.683733 29.9008-75.2128 69.973333v102.621867c0 39.68 34.4064 69.888 74.888533 70.144z m-0.068267-68.266667H291.498667a13.482667 13.482667 0 0 1-6.109867-1.314133l-0.938667-0.546133v-102.178134c0-0.2048 2.218667-2.133333 7.031467-2.1504h266.837333c4.727467 0 6.8096 1.7408 6.775467 0.324267v103.765333c0 0.1536-2.218667 2.0992-7.0144 2.0992zM448.785067 233.557333a34.133333 34.133333 0 1 0 0-68.266666H255.368533a34.133333 34.133333 0 1 0 0 68.266666h193.416534z m145.390933 0a34.133333 34.133333 0 1 0 0-68.266666h-4.437333a34.133333 34.133333 0 1 0 0 68.266666h4.437333z m0 116.309334a34.133333 34.133333 0 1 0 0-68.266667H255.368533a34.133333 34.133333 0 1 0 0 68.266667h338.807467z"  horiz-adv-x="1024" />

    
    <glyph glyph-name="fenxiang1" unicode="&#59409;" d="M466.2016 857.6a38.4 38.4 0 0 0 3.712-76.6208l-3.712-0.1792h-202.88a148.1216 148.1216 0 0 1-148.0192-142.4384l-0.1024-5.6832v-497.3568a148.1216 148.1216 0 0 1 142.4384-148.0192l5.6832-0.1024h497.3568a148.1216 148.1216 0 0 1 148.0192 142.4384l0.1024 5.6832v198.8352a38.4 38.4 0 0 0 76.6208 3.6864l0.1792-3.6864v-198.8352a224.9216 224.9216 0 0 0-218.2912-224.8192l-6.6304-0.1024H263.3216a224.9216 224.9216 0 0 0-224.8192 218.2912l-0.1024 6.6304V632.6784a224.9216 224.9216 0 0 0 218.2912 224.8192l6.6304 0.1024h202.88z m444.7232-36.2752a38.4 38.4 0 0 0 38.2208-34.688l0.1792-3.712v-217.6a38.4 38.4 0 0 0-76.6208-3.6864l-0.1792 3.6864-0.0256 121.2928-429.824-462.9248a38.4 38.4 0 0 0-58.8032 49.2544l2.5344 3.0208L821.4784 744.5504h-128.1536a38.4 38.4 0 0 0-38.2208 34.688l-0.1792 3.6864a38.4 38.4 0 0 0 34.7136 38.2208l3.6864 0.1792h217.6z"  horiz-adv-x="1024" />

    
    <glyph glyph-name="kuadiangongxiangshezhi" unicode="&#59425;" d="M512 384m-512 0a512 512 0 1 1 1024 0 512 512 0 1 1-1024 0ZM762.1632 332.8a30.72 30.72 0 0 0 30.59712-27.7504l0.12288-2.94912v-81.96096a112.64 112.64 0 0 0-108.09344-112.55808l-4.54656-0.08192h-398.7456a30.72 30.72 0 0 0-2.9696 61.29664l2.9696 0.14336h398.7456a51.2 51.2 0 0 1 51.0976 47.84128l0.1024 3.35872V302.08a30.72 30.72 0 0 0 30.72 30.72z m-212.52096 20.48c7.18848 0 14.00832-2.82624 19.08736-7.90528l53.92384-53.92384c1.26976-1.26976 2.39616-2.6624 3.4816-4.25984l0.4096-0.69632 1.39264-2.56 0.6144-1.39264 0.34816-0.88064 0.90112-2.94912 0.24576-1.10592c0.16384-0.75776 0.26624-1.51552 0.34816-2.1504l0.18432-3.25632-0.18432-2.80576-0.34816-2.3552a17.98144 17.98144 0 0 0-0.6144-2.23232l-0.49152-1.6384-0.4096-1.1264c-0.4096-0.94208-0.75776-1.6384-1.35168-2.6624l-1.14688-2.00704a27.4432 27.4432 0 0 0-3.39968-4.13696l-53.90336-53.90336c-5.07904-5.09952-11.8784-7.90528-19.08736-7.90528-7.18848 0-14.00832 2.80576-19.06688 7.8848a26.86976 26.86976 0 0 0-7.90528 19.08736c0 7.18848 2.80576 14.00832 7.8848 19.08736l7.90528 7.86432H313.71264a27.0336 27.0336 0 0 0-26.84928 24.24832L286.72 272.34304c0 14.88896 12.0832 26.99264 26.99264 26.99264H538.4192l-7.86432 7.86432a26.8288 26.8288 0 0 0-7.74144 16.03584l-0.16384 3.072c0 7.168 2.80576 13.98784 7.8848 19.0464 5.09952 5.12 11.89888 7.92576 19.08736 7.92576zM669.53216 691.2c35.86048 0 55.5008-12.8 68.38272-37.72416l63.65184-108.81024c1.47456-2.53952 2.56-5.20192 3.25632-7.92576l0.26624-1.3312 1.37216-4.5056c0.90112-3.39968 1.536-6.84032 1.9456-10.30144l0.18432-2.29376 0.28672-2.4576 0.1024-1.6384-0.02048-1.31072v-30.45376c0-62.09536-48.72192-113.152-109.3632-113.152a106.76224 106.76224 0 0 0-61.8496 19.80416l-0.67584 0.512-0.7168-0.512a106.86464 106.86464 0 0 0-56.66816-19.68128l-5.14048-0.12288a106.76224 106.76224 0 0 0-61.82912 19.80416l-0.69632 0.53248-0.7168-0.53248a106.86464 106.86464 0 0 0-56.66816-19.68128l-5.16096-0.12288a106.7008 106.7008 0 0 0-61.80864 19.80416l-0.69632 0.512-0.69632-0.512a106.86464 106.86464 0 0 0-56.66816-19.68128l-5.16096-0.12288c-60.68224 0-109.40416 51.03616-109.40416 113.152V513.024a121.2416 121.2416 0 0 0 0.12288 2.72384l0.38912 4.28032c0.8192 7.61856 2.8672 15.03232 6.02112 22.1184l1.04448 2.1504 0.67584 1.67936 1.45408 2.78528 60.43648 103.2192C300.25728 677.0688 321.16736 691.2 354.44736 691.2z m6.51264-61.44H354.44736c-9.6256 0-11.79648-1.45408-16.384-9.1136L301.40416 558.08H604.16a30.72 30.72 0 0 0 0-61.44h-327.68v-14.19264c0-27.648 20.15232-49.8688 44.8512-51.6096l3.11296-0.1024c14.62272 0 28.52864 7.20896 37.70368 19.80416l1.9456 2.39616a30.72 30.72 0 0 0 47.7184-2.41664l2.37568-3.03104a46.34624 46.34624 0 0 1 35.28704-16.75264c14.62272 0 28.52864 7.20896 37.70368 19.80416l1.9456 2.39616a30.72 30.72 0 0 0 47.7184-2.39616c9.17504-12.57472 23.08096-19.80416 37.6832-19.80416 14.62272 0 28.52864 7.20896 37.70368 19.80416l1.9456 2.39616a30.72 30.72 0 0 0 47.7184-2.41664c9.15456-12.57472 23.04-19.78368 37.6832-19.78368 26.07104 0 47.9232 22.91712 47.9232 51.712l0.02048 14.19264h-40.96a30.72 30.72 0 0 0 0 61.44h15.99488l-37.62176 64.34816-2.60096 4.73088c-1.2288 2.1504-2.2528 2.56-6.28736 2.62144z"  horiz-adv-x="1024" />

    
    <glyph glyph-name="woyaodaiyanguanlianhuodong" unicode="&#59401;" d="M0 383.488C0 101.00736 229.00736-128 511.50848-128 793.98912-128 1022.976 101.00736 1022.976 383.488 1022.99648 666.0096 794.0096 894.99648 511.50848 894.99648 229.00736 894.99648 0 666.0096 0 383.488zM581.0176 700.416c27.79136 0 54.0672-10.8544 73.728-30.53568a104.3456 104.3456 0 0 0 22.97856-112.72192h73.99424c36.5568 0 66.68288-29.04064 66.68288-65.37216v-94.26944c0-31.0272-21.97504-56.75008-51.15904-63.61088v-175.08352c0-48.96768-36.0448-89.96864-82.67776-92.3648l-4.25984-0.08192H342.71232c-47.26784 0-84.70528 39.56736-86.85568 88.02304l-0.1024 4.42368v175.08352c-29.184 6.8608-51.15904 32.5632-51.15904 63.61088v94.26944c0 36.352 30.1056 65.39264 66.68288 65.39264h73.85088a104.32512 104.32512 0 0 0 96.70656 143.23712 103.7312 103.7312 0 0 0 69.57056-26.58304 103.8336 103.8336 0 0 0 69.59104 26.58304zM317.11232 158.8224c0-16.73216 10.73152-29.4912 23.22432-30.9248l2.3552-0.14336h138.09664v204.3904h-163.67616v-173.32224z m388.73088 173.30176h-163.67616v-204.3904h138.11712c12.65664 0 24.12544 11.79648 25.43616 27.99616l0.12288 3.072v173.32224z m45.8752 163.67616H271.27808c-3.13344 0-5.30432-2.08896-5.30432-4.01408v-94.26944c0-1.9456 2.17088-4.01408 5.30432-4.01408h209.5104v41.1648a30.69952 30.69952 0 1 0 61.37856 0v-41.1648h209.53088c2.62144 0 4.54656 1.4336 5.12 3.05152l0.18432 0.96256v94.26944c0 1.92512-2.17088 4.01408-5.30432 4.01408z m-170.74176 143.21664c-11.50976 0-22.17984-4.38272-30.3104-12.53376-4.608-4.608-7.9872-14.97088-8.58112-31.41632 0.12288-4.21888 0.1024-8.51968-0.04096-12.94336l0.02048 2.62144 0.02048-0.6144c0.2048-5.2224 0.57344-10.50624 1.1264-15.7696l0.98304-7.74144 0.14336-1.06496 8.86784-1.14688 7.86432-0.69632 7.84384-0.4096c1.92512-0.08192 3.76832-0.1024 5.5296-0.1024 19.80416 0 31.8464 3.62496 36.864 8.66304a42.94656 42.94656 0 0 1 0 60.6208 42.3936 42.3936 0 0 1-30.3104 12.55424z m-139.1616 0c-11.50976 0-22.20032-4.38272-30.35136-12.53376a42.96704 42.96704 0 0 1 0-60.6208c5.03808-5.03808 17.1008-8.66304 36.90496-8.66304 9.70752 0.1024 19.39456 0.8192 28.99968 2.19136l1.06496 0.16384 1.1264 8.84736 0.7168 7.86432 0.4096 7.86432 0.02048 0.43008a193.26976 193.26976 0 0 0 0 10.3424c-0.57344 16.56832-3.95264 26.95168-8.56064 31.58016a42.3936 42.3936 0 0 1-30.33088 12.55424z"  horiz-adv-x="1024" />

    
    <glyph glyph-name="youhuiquan" unicode="&#59402;" d="M512 384m-512 0a512 512 0 1 1 1024 0 512 512 0 1 1-1024 0ZM291.14368 639.32416h48.86528l4.096 0.512 4.15744 0.16384h102.48192c2.78528 0 5.5296-0.2048 8.25344-0.65536l273.83808-0.02048A96.50176 96.50176 0 0 0 829.44 542.9248v-83.00544c0-23.20384-13.90592-44.032-34.95936-53.28896l-6.7584-2.70336c-6.00064-2.6624-10.0352-6.02112-12.04224-9.58464-9.07264-16.22016-2.92864-33.9968 11.81696-40.71424l6.18496-2.41664a58.34752 58.34752 0 0 0 35.75808-53.61664v-73.216c0-53.248-43.27424-96.37888-96.60416-96.37888H291.16416A96.50176 96.50176 0 0 0 194.56 224.37888v73.216c0 23.22432 13.9264 44.032 34.97984 53.28896l6.7584 2.70336c5.98016 2.6624 10.01472 6.00064 12.00128 9.56416 9.60512 17.14176 2.21184 36.00384-14.336 41.73824A58.38848 58.38848 0 0 0 194.56 459.91936v83.02592c0 53.248 43.27424 96.37888 96.58368 96.37888z m158.45376-60.76416h-100.18816a30.72 30.72 0 0 0-6.3488-0.65536l-51.89632-0.02048c-19.456 0-35.16416-15.6672-35.16416-34.93888v-80.6912c51.07712-18.98496 73.99424-78.97088 45.91616-129.1264-9.9328-17.7152-26.15296-30.26944-45.91616-37.84704v-70.90176c0-19.27168 15.72864-34.93888 35.16416-34.93888h441.67168c19.456 0 35.16416 15.6672 35.16416 34.93888v70.8608c-51.07712 18.98496-73.99424 78.97088-45.91616 129.1264 9.91232 17.7152 26.15296 30.26944 45.91616 37.86752v80.6912c0 19.29216-15.72864 34.95936-35.16416 34.95936h-276.8896l-3.19488 0.18432-3.15392 0.49152zM440.32 445.44h143.36a30.72 30.72 0 0 0 0-61.44h-143.36a30.72 30.72 0 0 0 0 61.44zM471.04 499.11808l43.43808-43.43808A30.72 30.72 0 0 0 471.04 412.24192L427.60192 455.68A30.72 30.72 0 0 0 471.04 499.11808zM552.96 499.11808L509.52192 455.68A30.72 30.72 0 0 1 552.96 412.24192l43.43808 43.43808A30.72 30.72 0 0 1 552.96 499.11808zM419.84 363.52h184.32a30.72 30.72 0 0 0 0-61.44h-184.32a30.72 30.72 0 0 0 0 61.44zM542.72 424.96v-163.84a30.72 30.72 0 0 0-61.44 0v163.84a30.72 30.72 0 0 0 61.44 0z"  horiz-adv-x="1024" />

    
    <glyph glyph-name="yinliu" unicode="&#59400;" d="M60.235294 263.529412v-391.529412H0V263.529412h60.235294zM933.647059 896v-60.235294H481.882353l1.355294 60.235294H933.647059zM467.230118 896H933.647059L0-128V383.804235zM421.586824 379.452235l-186.127059 167.589647-17.242353-19.139764 186.127059-167.604706 17.242353 19.154823z m-95.924706-103.68c19.681882 23.868235 25.042824 42.375529 16.112941 55.536941-8.749176 12.980706-29.861647 34.906353-63.909647 65.551059l-70.008471-77.748706-23.386353 32.376471 62.584471 69.481412-62.253177 56.048941-82.160941-91.256471 17.317647-15.600941 65.114353 72.32753 27.407059-24.681412-59.678118-66.258824 54.256942-68.562823 71.107764 78.96847c21.353412-19.230118 34.334118-32.752941 38.972236-40.56847 4.276706-8.222118 0.075294-19.772235-12.980706-34.273883-5.797647-6.445176-12.197647-12.724706-18.597647-18.627764l22.076235-11.128471c6.204235 6.083765 12.227765 11.971765 18.04047 18.416941z m215.567058 423.30353l3.252706 25.901176c-19.019294 3.975529-43.143529 6.369882-72.176941 7.333647l-4.487529-24.033882c8.658824-0.496941 17.136941-1.204706 25.615059-1.912471a2071.461647 2071.461647 0 0 0-49.152-65.536c-1.852235 13.342118-6.369882 30.177882-13.221647 50.944l66.017882 73.321412-17.121882 15.405177-46.426353-51.561412a476.084706 476.084706 0 0 1-28.431059 11.369412l-14.366118-22.437648c8.176941-2.258824 16.564706-5.089882 25.193412-8.463058l-48.414118-53.790118 17.121883-15.420235 28.656941 31.834353c7.920941-26.849882 11.023059-45.688471 8.899764-56.545883a59.587765 59.587765 0 0 0-1.822117-5.270588l19.922823-10.285176a2258.642824 2258.642824 0 0 1 78.064942 103.318588 390.324706 390.324706 0 0 0 22.874352-4.171294z m-167.152941-81.121883l-1.355294 26.036706c-16.278588-0.662588-34.379294-3.343059-53.714823-7.80047l0.783058-25.871059c21.232941 4.954353 39.529412 7.439059 54.302118 7.634823z m47.766589-50.657882l-1.355295 26.036706c-17.302588 0.240941-36.773647-1.551059-57.690353-5.330824l0.963765-25.675294c22.799059 4.276706 42.104471 5.872941 58.081883 4.969412z m166.475294 5.842824l-88.229647 79.450352-17.408-19.335529 88.244705-79.450353 17.392942 19.33553z m-55.476706-69.315765c0.481882 19.983059-3.162353 38.219294-11.685647 54.663529-8.508235 15.676235-25.479529 35.704471-51.350589 60.461177l-16.685176-18.522353c22.437647-21.684706 37.150118-38.550588 43.956706-51.260236 7.017412-13.251765 10.285176-27.858824 9.59247-44.016941l26.172236-1.325176z m99.388235 114.04047c7.378824 9.411765 10.24 17.046588 8.583529 23.280942-1.882353 6.430118-12.288 18.371765-31.232 35.418353l-21.293176-11.098353a399.013647 399.013647 0 0 0 21.835294-21.12753c4.472471-4.758588 6.023529-8.704 4.065882-11.685647l-6.535529-7.243294c-2.213647-1.656471-4.517647-1.400471-6.746353 0.602353L532.028235 688.037647l-16.323764-18.130823 72.523294-65.295059c11.685647-10.511059 23.702588-9.306353 36.035764 4.382117l7.981177 8.869647z m-129.370353-142.471529a953.208471 953.208471 0 0 1-49.302588 91.075765l-21.684706-11.113412a920.425412 920.425412 0 0 0 47.344941-90.413177l23.642353 10.450824z"  horiz-adv-x="1024" />

    
    <glyph glyph-name="zaidiansaoma1" unicode="&#59393;" d="M0 896m327.68 0l368.64 0q327.68 0 327.68-327.68l0-368.64q0-327.68-327.68-327.68l-368.64 0q-327.68 0-327.68 327.68l0 368.64q0 327.68 327.68 327.68ZM256.78848 340.93056c11.13088 0 20.3776-8.57088 21.21728-19.67104l0.0512-1.59744V179.4048c0-15.39072 11.8784-28.16 27.2384-29.27616l2.11968-0.07168h140.25728a21.26848 21.26848 0 0 0 1.5872-42.48576l-1.59744-0.0512H307.4048a71.8848 71.8848 0 0 0-71.81312 68.7104L235.52 179.4048V319.66208c0 11.74528 9.5232 21.26848 21.26848 21.26848z m510.42304 0c11.13088 0 20.3776-8.57088 21.21728-19.67104l0.0512-1.59744V179.4048a71.8848 71.8848 0 0 0-68.7104-71.81312l-3.1744-0.07168H576.33792a21.26848 21.26848 0 0 0-1.59744 42.47552l1.59744 0.06144H716.5952c15.39072 0 28.16 11.8784 29.27616 27.2384l0.07168 2.11968V319.66208c0 11.74528 9.5232 21.26848 21.26848 21.26848z m-85.07392 64.33792c14.1824 0 21.26848-7.08608 21.26848-21.26848s-7.08608-21.26848-21.26848-21.26848h-340.2752c-14.1824 0-21.26848 7.08608-21.26848 21.26848s7.08608 21.26848 21.26848 21.26848h340.2752zM716.5952 660.48a71.8848 71.8848 0 0 0 71.81312-68.7104l0.07168-3.1744v-140.25728a21.26848 21.26848 0 0 0-42.48576-1.59744l-0.0512 1.59744V588.5952c0 15.39072-11.8784 28.16-27.2384 29.27616l-2.11968 0.07168H576.33792a21.26848 21.26848 0 0 0-1.59744 42.48576l1.59744 0.0512H716.5952z m-268.93312 0a21.26848 21.26848 0 0 0 1.59744-42.48576l-1.59744-0.0512H307.4048a29.34784 29.34784 0 0 1-29.27616-27.2384l-0.07168-2.11968v-140.25728a21.26848 21.26848 0 0 0-42.48576-1.5872L235.52 448.33792V588.5952a71.87456 71.87456 0 0 0 68.7104 71.81312l3.1744 0.07168h140.25728z"  horiz-adv-x="1024" />

    
    <glyph glyph-name="duijiangliwu1" unicode="&#59392;" d="M0 896m327.68 0l368.64 0q327.68 0 327.68-327.68l0-368.64q0-327.68-327.68-327.68l-368.64 0q-327.68 0-327.68 327.68l0 368.64q0 327.68 327.68 327.68ZM336.67072 107.90912a51.03616 51.03616 0 0 0-35.76832 14.55104 49.22368 49.22368 0 0 0-14.80704 35.1232V396.00128c-27.93472 0-50.57536 22.23104-50.57536 49.664v49.664c0 27.4432 22.64064 49.664 50.57536 49.664h112.72192c-14.11072 8.20224-27.41248 17.7152-38.57408 27.77088-26.04032 23.45984-39.0656 47.75936-28.28288 68.2496l1.01376 1.80224 1.11616 1.7408c13.07648 19.16928 41.02144 19.712 74.50624 8.63232 28.8768-9.5232 60.02688-27.60704 82.49344-47.8208 10.9568-9.86112 19.58912-19.8656 25.12896-29.66528 6.00064 10.1376 15.57504 20.31616 27.7504 30.22848 23.48032 19.06688 55.53152 35.56352 84.85888 43.64288 35.0208 9.66656 63.54944 7.3216 74.98752-14.1312 11.45856-21.46304-2.82624-45.83424-30.84288-68.608a228.6592 228.6592 0 0 0-32.5632-21.83168h90.7264c13.4144 0 26.27584-5.23264 35.75808-14.5408a49.23392 49.23392 0 0 0 14.80704-35.1232v-49.67424c0-13.16864-5.3248-25.8048-14.80704-35.1232a51.0464 51.0464 0 0 0-35.76832-14.5408v-238.41792c0-13.17888-5.3248-25.8048-14.80704-35.1232a51.0464 51.0464 0 0 0-35.75808-14.5408H336.67072z m80.91648 288.09216h-91.0336v-238.41792c0-2.63168 1.06496-5.16096 2.95936-7.02464a10.20928 10.20928 0 0 1 7.15776-2.90816h80.91648V396.00128z m182.05696 0v-67.97312c0-10.3936-8.16128-19.02592-18.71872-19.8144l-1.51552-0.0512a20.41856 20.41856 0 0 0-14.29504 5.81632 19.69152 19.69152 0 0 0-5.9392 14.04928v67.97312H458.0352v-248.35072h101.15072V251.21792c0 7.09632 3.85024 13.66016 10.10688 17.2032a20.56192 20.56192 0 0 0 20.23424 0c6.25664-3.54304 10.11712-10.10688 10.11712-17.2032V147.6608h80.91648a10.21952 10.21952 0 0 1 7.14752 2.90816 9.85088 9.85088 0 0 1 2.9696 7.02464V396.00128h-91.0336z m131.4816 109.2608H286.1056a10.0352 10.0352 0 0 1-10.11712-9.9328v-49.664c0-5.48864 4.52608-9.9328 10.11712-9.9328h445.0304a10.02496 10.02496 0 0 1 10.11712 9.9328v49.664a10.0352 10.0352 0 0 1-10.11712 9.9328zM371.33312 620.5952l1.13664-1.80224c3.2768-4.9152 8.3968-10.68032 15.11424-16.72192 18.30912-16.4864 44.53376-31.68256 68.05504-39.46496 9.71776-3.20512 18.1248-4.864 24.36096-5.03808-3.14368 5.28384-8.704 11.7248-16.25088 18.51392-18.29888 16.4864-44.53376 31.6928-68.06528 39.48544-9.70752 3.20512-18.1248 4.864-24.35072 5.0176z m293.0176-5.44768c-6.21568 0.16384-14.71488-1.08544-24.576-3.80928-23.90016-6.59456-50.8928-20.48-70.01088-36.00384-7.00416-5.70368-12.4416-11.2128-15.95392-15.94368l-1.2288-1.7408h2.16064c5.96992 0.14336 13.66016 1.39264 22.4256 3.80928 23.88992 6.58432 50.87232 20.48 70.01088 36.01408 5.26336 4.27008 10.98752 10.16832 17.17248 17.67424z"  horiz-adv-x="1024" />

    
    <glyph glyph-name="mingpian1" unicode="&#59391;" d="M852.5824 640c23.6544 0 43.4176-18.6624 43.4176-42.4192v-529.5616c0-11.5712-4.8128-22.5536-13.2352-30.4896-8.1152-7.68-18.944-11.9296-30.1824-11.9296H120.2176c-11.2128 0-22.0672 4.2496-30.1824 11.9296A41.984 41.984 0 0 0 76.8 68.0192V597.5808C76.8 621.312 96.5632 640 120.2176 640zM844.8 588.8H128v-512h716.8V588.8z m-486.4-51.2c56.2688 0 102.2208-44.5696 102.4-100.1216v-29.9008a98.816 98.816 0 0 0-26.24-67.0976l58.88-45.0048a113.2288 113.2288 0 0 0 43.9808-83.584l0.1792-6.1952v-34.7392c0-11.2896-4.4288-22.144-12.3392-30.208a42.5216 42.5216 0 0 0-26.0864-12.544l-4.2496-0.2048H221.8752a42.7776 42.7776 0 0 0-42.496 39.2704L179.2 170.9568v34.816a113.408 113.408 0 0 0 39.424 85.8368l4.7616 3.8912 58.8544 44.9792A98.816 98.816 0 0 0 256 407.552v30.0032C256.1792 493.056 302.1312 537.6 358.4 537.6z m29.7216-226.0992a104.2688 104.2688 0 0 0-59.4432 0l-74.1632-56.6784a61.9776 61.9776 0 0 1-23.9104-44.3136L230.4 205.696V179.2l256 0.0256v26.4192a62.2336 62.2336 0 0 1-20.4288 46.1312l-3.6608 3.0464zM870.4 716.8a102.4 102.4 0 0 0 102.272-97.28L972.8 614.4v-409.6a25.6 25.6 0 0 0-51.0208-2.9952L921.6 204.8V614.4a51.2 51.2 0 0 1-47.36 51.072L870.4 665.6H204.8a25.6 25.6 0 0 0-2.9952 51.0208L204.8 716.8h665.6z m-204.8-332.8a25.6 25.6 0 0 0 0-51.2h-102.4a25.6 25.6 0 0 0 0 51.2h102.4z m-307.2 102.4c-28.3648 0-51.0976-22.0672-51.2-48.9216v-29.9008c0-27.008 22.784-49.1776 51.2-49.1776 28.416 0 51.2 22.1696 51.2 49.152v29.8496C409.4976 464.3328 386.7648 486.4 358.4 486.4z m409.6 0a25.6 25.6 0 0 0 0-51.2h-204.8a25.6 25.6 0 0 0 0 51.2h204.8z"  horiz-adv-x="1024" />

    
    <glyph glyph-name="dianpu" unicode="&#59390;" d="M911.36 530.7392c-21.845333 57.992533-46.08 115.0976-69.0176 172.714667-15.086933 37.888-44.612267 55.3984-84.036267 55.6032-163.908267 0.580267-327.816533 0.580267-491.690666-0.1024-36.181333-0.2048-64.034133-15.872-78.848-51.029334-23.6544-56.149333-49.152-111.650133-71.611734-168.277333-8.192-20.650667-13.550933-43.793067-13.755733-65.877333-0.853333-118.613333 126.976-195.037867 232.7552-139.605334 18.909867 9.898667 35.566933 24.234667 54.8864 37.614934 31.5392-33.348267 71.236267-54.852267 121.105067-55.125334 49.902933-0.273067 89.7024 20.923733 126.122666 59.050667 3.857067-5.358933 5.973333-9.557333 9.216-12.629333 38.468267-36.010667 84.445867-51.950933 136.533334-45.6704 101.034667 12.151467 164.488533 117.623467 128.341333 213.333333zM236.305067 490.359467z m571.733333-233.2672c-57.787733-15.837867-113.902933-11.741867-165.546667 19.012266-13.243733 7.850667-21.333333 7.031467-33.621333-0.8192-65.4336-42.325333-156.842667-42.5984-222.208-0.8192-8.738133 5.597867-13.9264 5.597867-22.698667 0.1024-56.797867-35.362133-117.384533-43.9296-181.76-20.957866-28.842667 10.3424-45.602133-0.682667-45.602133-30.5152-0.1024-46.3872-0.1024-92.842667 0-139.264 0.1024-44.509867 32.426667-75.264 79.530667-75.264 93.013333-0.1024 186.026667 0 279.176533 0 94.549333 0 189.166933-0.1024 283.784533 0.1024 41.403733 0.1024 73.9328 31.266133 74.103467 70.792533 0.2048 48.810667 0.1024 97.655467 0.1024 146.466133-0.1024 30.139733-14.813867 39.5264-45.294933 31.163734z"  horiz-adv-x="1024" />

    
    <glyph glyph-name="yishoucang1" unicode="&#60129;" d="M511.9232 844.8c-46.464 0-88.4224-25.6-109.056-66.816l-80.7168-160.6144a15.5136 15.5136 0 0 0-11.6992-8.2688l-180.608-25.7024a120.704 120.704 0 0 1-98.2016-81.6128 118.6048 118.6048 0 0 1 30.9248-123.392l130.9952-125.4912a13.824 13.824 0 0 0 3.9936-12.416l-30.8224-176.64a118.784 118.784 0 0 1 48.5376-117.7088 121.9584 121.9584 0 0 1 128-8.9088l161.3312 83.328a16.0256 16.0256 0 0 0 14.7712 0.0256l161.536-83.4304a122.2912 122.2912 0 0 1 127.6672 9.088c37.8368 27.008 56.576 72.192 48.64 117.7088l-30.8224 176.512a14.4896 14.4896 0 0 0 4.352 12.8l130.6112 125.0048a118.3744 118.3744 0 0 1 30.9504 123.4176 120.8832 120.8832 0 0 1-98.304 81.6128l-180.5312 25.7792a15.616 15.616 0 0 0-11.776 8.2432l-80.7424 160.6912A121.2416 121.2416 0 0 1 511.8976 844.8z"  horiz-adv-x="1024" />

    
    <glyph glyph-name="tianjiashoucang" unicode="&#60130;" d="M511.9232 819.2c42.112 0 80.3072-22.1184 100.6336-58.0864l2.6624-4.992 76.5184-151.7568a14.592 14.592 0 0 1 8.7552-7.2448l2.3808-0.5376 171.008-24.3456a114.432 114.432 0 0 0 93.1328-77.056 111.5648 111.5648 0 0 0-29.312-116.608l-88.32-84.2752a25.6 25.6 0 1 0-35.328 37.0432l88.32 84.2752a60.3648 60.3648 0 0 1 16.0768 63.36 63.0272 63.0272 0 0 1-47.232 41.7536l-4.5312 0.8192-171.136 24.3456a66.1248 66.1248 0 0 0-47.36 31.4624l-2.2016 3.9936-76.4928 151.7568C558.6944 754.6112 536.704 768 511.9232 768c-23.2192 0-43.9808-11.776-55.424-30.976l-2.1504-3.9424-76.5184-151.7568a65.8688 65.8688 0 0 0-45.1072-34.6368l-4.5312-0.7936-171.008-24.2688c-24.4224-3.456-44.0832-19.712-51.6608-42.496a60.416 60.416 0 0 1 12.7488-60.0064l3.328-3.4304 123.8016-118.2208c14.592-13.824 21.8368-33.536 19.7888-53.2992l-0.64-4.5824-29.2096-166.8096c-4.1216-23.3984 5.4528-46.5152 25.216-60.5952 11.264-8.0128 24.4224-12.1856 37.888-12.1856 8.6016 0 17.152 1.7408 25.2928 5.1968l4.864 2.304 152.8832 78.72a66.3808 66.3808 0 0 0 56.5504 2.1504l4.4544-2.0992 152.9856-78.7712a25.6 25.6 0 0 0-20.7104-46.7456l-2.7136 1.2288-153.0624 78.7968a15.1808 15.1808 0 0 1-11.7248 0.9216l-2.2784-0.9728-152.832-78.6944a115.84 115.84 0 0 0-121.2416 8.4224 112.0512 112.0512 0 0 0-46.848 105.5744l0.8448 5.632 29.2096 166.8096a13.1328 13.1328 0 0 1-2.1248 9.7792l-1.664 1.92-124.1088 118.528a111.7952 111.7952 0 0 0-29.2864 116.5312 114.1248 114.1248 0 0 0 87.3984 76.16l5.632 0.9216 171.0848 24.2688a14.7968 14.7968 0 0 1 9.856 5.8368l1.2288 1.9968 76.4928 151.68C428.16 795.008 467.9168 819.2 511.9232 819.2zM793.6 256a25.6 25.6 0 0 0 25.6-25.6v-76.8h76.8a25.6 25.6 0 0 0 0-51.2h-76.8256L819.2 25.6a25.6 25.6 0 0 0-51.2 0l-0.0256 76.8H691.2a25.6 25.6 0 0 0 0 51.2h76.8v76.8a25.6 25.6 0 0 0 25.6 25.6z"  horiz-adv-x="1024" />

    
    <glyph glyph-name="shouye6" unicode="&#60131;" d="M888.32 281.6a25.6 25.6 0 0 0 25.4208-22.6048L913.92 256v-179.2a128 128 0 0 0-122.4448-127.872L785.92-51.2h-563.2a128 128 0 0 0-127.872 122.4448L94.72 76.8v179.2a25.6 25.6 0 0 0 51.0208 2.9952L145.92 256v-179.2a76.8 76.8 0 0 1 72.2944-76.672L222.72 0h563.2a76.8 76.8 0 0 1 76.672 72.2944L862.72 76.8v179.2a25.6 25.6 0 0 0 25.6 25.6zM771.6096 819.2c26.1888 0 50.0224-6.6048 70.7584-19.712a108.3136 108.3136 0 0 0 42.8544-49.8688l2.2016-5.632 74.3936-180.1472 4.0704-12.5696c5.3504-17.6128 7.68-33.6896 6.7072-48.3072l-0.4352-4.1216-0.128-6.656a183.552 183.552 0 0 0-19.6608-75.2896l-4.1728-7.9104-4.1472-7.0912c-18.6368-30.6176-44.0064-54.6816-77.824-72.832-9.1392-3.84-18.176-7.2192-27.392-10.2656-9.6256-3.072-19.968-5.4784-31.1296-7.2192-11.264-1.7152-22.6048-2.56-34.3552-2.56-47.744 0-89.4208 13.8752-124.032 41.3184l-6.4 5.3248-2.0736 1.8688-1.9456-1.792c-31.36-27.5456-68.7872-43.008-111.6672-46.1568l-8.6528-0.4352-7.808-0.1536c-46.8992 0-87.8336 13.952-121.8816 41.472l-6.2976 5.2992-1.8688 1.7152-2.6368-2.4064a190.2336 190.2336 0 0 0-113.408-47.2576l-8.6784-0.4864-7.808-0.128c-36.5312 0-67.84 6.9888-93.184 21.0944a206.3616 206.3616 0 0 0-54.1696 42.0608 184.4736 184.4736 0 0 0-36.9664 59.52A191.744 191.744 0 0 0 51.2 498.3808c0 10.368 1.1008 20.7104 3.2256 30.7456 0.6912 3.3536 1.4336 6.784 2.304 10.368l1.3312 5.504 3.1744 12.2112a25.6 25.6 0 0 0 1.5616 4.2752l1.0752 2.0224 0.3072 0.4352 0.1536 0.4608 78.7456 180.6848A109.1328 109.1328 0 0 0 188.0576 800c18.5088 11.52 39.4496 17.8432 62.4896 18.9952L258.304 819.2h513.3056z m0-51.2h-513.28c-16.8192 0-31.0016-3.84-43.1872-11.4176-9.984-6.2464-17.28-14.4384-22.528-25.7536l-2.1248-5.0432-78.08-179.2-0.9472-2.9952-1.4336-3.1488-0.512-0.8192-1.7408-6.784-2.2528-9.6256-0.9728-4.5312a96.9216 96.9216 0 0 1-2.1504-20.3008c0-17.1776 3.1232-33.9712 9.2928-50.2016a133.12 133.12 0 0 1 26.7008-43.0592c12.0576-13.0048 25.6-23.552 41.1904-31.8976 17.4592-9.728 40.2944-14.8224 68.608-14.8224 45.44 0 82.5856 17.152 113.3568 52.4288a25.6 25.6 0 0 0 38.784-0.2048c28.8768-33.8944 65.024-50.432 110.4384-50.432 45.3888 0 81.4848 16.512 110.464 50.432a25.6 25.6 0 0 0 38.8096 0.1536c29.44-33.9456 66.6112-50.5856 113.3056-50.5856 9.1904 0 17.92 0.6656 26.5472 1.9968a151.8336 151.8336 0 0 1 32.256 8.448l4.3008 1.5872 7.68 2.9696a145.4592 145.4592 0 0 1 56.2176 53.376 134.912 134.912 0 0 1 20.4544 64.0768l0.2048 7.5264 0.2304 3.4048c1.1008 8.3712-0.256 19.584-4.608 33.6896l-1.792 5.4272-1.024 3.5072L839.68 725.504a58.0608 58.0608 0 0 1-24.6528 30.6688C802.6368 764.032 788.3008 768 771.6096 768zM768 563.2a25.6 25.6 0 0 0 0-51.2H256a25.6 25.6 0 0 0 0 51.2h512z"  horiz-adv-x="1024" />

    
    <glyph glyph-name="dianpuzhuangxiu4" unicode="&#60083;" d="M0 896m327.68 0l368.64 0q327.68 0 327.68-327.68l0-368.64q0-327.68-327.68-327.68l-368.64 0q-327.68 0-327.68 327.68l0 368.64q0 327.68 327.68 327.68ZM650.96704 588.8v-42.9056a20.48 20.48 0 1 0-40.96 0V588.8h-75.33568v-42.9056a20.48 20.48 0 1 0-40.96 0V588.8h-77.52704v-40.96a20.48 20.48 0 1 0-40.96 0v40.96h-25.7536c-13.55776 0-17.68448-0.79872-21.89312-3.05152-3.11296-1.65888-5.4272-3.97312-7.08608-7.08608-2.2528-4.20864-3.05152-8.33536-3.05152-21.89312v-67.44064h389.12v67.44064c0 13.55776-0.79872 17.68448-3.05152 21.89312a16.7424 16.7424 0 0 1-7.08608 7.08608c-4.20864 2.2528-8.33536 3.05152-21.89312 3.05152h-23.552zM276.48 484.03456v72.73472c0 19.74272 2.02752 30.2592 7.8848 41.216a57.69216 57.69216 0 0 0 23.88992 23.87968c10.9568 5.86752 21.47328 7.89504 41.216 7.89504h325.05856c19.74272 0 30.2592-2.02752 41.216-7.8848a57.69216 57.69216 0 0 0 23.87968-23.88992c5.86752-10.9568 7.89504-21.47328 7.89504-41.216v-72.73472c1.024-0.47104 2.048-0.98304 3.06176-1.52576a50.3808 50.3808 0 0 0 20.8384-20.8384c5.0688-9.472 6.81984-18.55488 6.81984-35.0208v-42.20928c0-45.2608-36.7616-81.92-82.0736-81.92v40.96a41.03168 41.03168 0 0 1 41.1136 40.96v41.472 0.73728c0 10.2912-0.512 12.97408-1.97632 15.69792a9.44128 9.44128 0 0 1-4.0448 4.0448c-2.7136 1.45408-5.40672 1.97632-15.69792 1.97632H308.43904c-10.2912 0-12.98432-0.52224-15.69792-1.97632a9.44128 9.44128 0 0 1-4.0448-4.0448c-1.45408-2.72384-1.97632-5.40672-1.97632-15.69792v-42.20928c0-10.8544 4.33152-21.25824 12.032-28.94848a41.17504 41.17504 0 0 1 29.0816-12.00128h82.24768a41.1648 41.1648 0 0 0 29.0816-12.02176 41.0624 41.0624 0 0 0 12.06272-29.07136v-61.44c0-34.0992 27.72992-61.75744 61.97248-61.75744 34.23232 0 61.96224 27.66848 61.96224 61.76768V302.3872a41.0624 41.0624 0 0 0 12.07296 29.07136 41.1648 41.1648 0 0 0 29.0816 12.02176h82.23744v-40.96h-2.38592v40.96h2.38592v-40.96h-82.24768c-0.06144 0-0.1024-0.03072-0.18432-0.13312v-61.44c0-56.7296-46.09024-102.71744-102.92224-102.71744s-102.93248 45.9776-102.93248 102.72768l-0.04096 61.50144a0.2048 0.2048 0 0 1-0.14336 0.06144h-82.24768a82.13504 82.13504 0 0 0-58.0096 23.9616A81.83808 81.83808 0 0 0 245.76 384.45056v4.8128 37.39648c0 16.46592 1.75104 25.5488 6.81984 35.0208A50.3808 50.3808 0 0 0 273.408 482.5088c1.024 0.54272 2.048 1.05472 3.06176 1.52576z"  horiz-adv-x="1024" />

    
    <glyph glyph-name="baobeikehu2" unicode="&#60084;" d="M0 896m327.68 0l368.64 0q327.68 0 327.68-327.68l0-368.64q0-327.68-327.68-327.68l-368.64 0q-327.68 0-327.68 327.68l0 368.64q0 327.68 327.68 327.68ZM694.3744 650.24c19.90656 0 30.48448-2.01728 41.50272-7.84384a57.91744 57.91744 0 0 0 24.1152-23.83872c5.9392-10.98752 8.00768-21.53472 8.00768-41.30816v-386.49856c0-19.77344-2.05824-30.32064-8.00768-41.30816a57.91744 57.91744 0 0 0-24.1152-23.83872c-11.01824-5.82656-21.59616-7.84384-41.50272-7.84384H375.76704c-19.90656 0-30.48448 2.01728-41.50272 7.84384a57.91744 57.91744 0 0 0-24.1152 23.83872c-5.9392 10.98752-8.00768 21.53472-8.00768 41.30816v39.94624a20.48 20.48 0 1 0 40.96 0v-39.94624c0-13.5168 0.79872-17.6128 3.072-21.8112 1.67936-3.10272 4.0448-5.43744 7.2192-7.1168 4.33152-2.29376 8.58112-3.10272 22.3744-3.10272H694.3744c13.79328 0 18.04288 0.8192 22.3744 3.10272 3.1744 1.67936 5.53984 4.01408 7.2192 7.1168 2.27328 4.1984 3.072 8.2944 3.072 21.8112V230.4h-70.36928c-19.74272 0-30.2592 2.02752-41.216 7.8848a57.69216 57.69216 0 0 0-23.87968 23.88992C585.70752 273.13152 583.68 283.648 583.68 303.39072V485.08928c0 19.74272 2.02752 30.2592 7.8848 41.216a57.69216 57.69216 0 0 0 23.88992 23.87968c10.9568 5.86752 21.47328 7.89504 41.216 7.89504H727.04v19.16928c0 13.5168-0.79872 17.6128-3.072 21.8112a16.97792 16.97792 0 0 1-7.2192 7.1168c-4.07552 2.1504-8.0896 3.00032-20.02944 3.09248L375.76704 609.28c-13.79328 0-18.04288-0.8192-22.3744-3.10272-3.1744-1.67936-5.53984-4.01408-7.2192-7.1168-2.12992-3.93216-2.9696-7.7824-3.06176-19.38432l-0.01024-54.45632a20.48 20.48 0 1 0-40.96 0v52.02944c0 19.77344 2.05824 30.32064 8.00768 41.30816a57.91744 57.91744 0 0 0 24.1152 23.83872c11.01824 5.82656 21.59616 7.84384 41.50272 7.84384H694.3744zM727.04 517.12h-70.36928c-13.55776 0-17.68448-0.79872-21.89312-3.05152-3.11296-1.65888-5.4272-3.97312-7.08608-7.08608-2.10944-3.9424-2.94912-7.82336-3.04128-19.456L624.64 303.39072c0-13.55776 0.79872-17.68448 3.05152-21.89312 1.65888-3.11296 3.97312-5.4272 7.08608-7.08608 4.20864-2.2528 8.33536-3.05152 21.89312-3.05152H727.04V517.12zM378.88 312.32a20.48 20.48 0 1 0 0-40.96H276.48a20.48 20.48 0 1 0 0 40.96h102.4z m-56.25856 114.432a20.48 20.48 0 0 0 20.48-20.48v-54.81472a20.48 20.48 0 1 0-40.96 0v54.81472a20.48 20.48 0 0 0 20.48 20.48zM378.88 486.4a20.48 20.48 0 1 0 0-40.96H276.48a20.48 20.48 0 1 0 0 40.96h102.4z"  horiz-adv-x="1024" />

    
    <glyph glyph-name="jiedaizhongxin1" unicode="&#60085;" d="M0 896m327.68 0l368.64 0q327.68 0 327.68-327.68l0-368.64q0-327.68-327.68-327.68l-368.64 0q-327.68 0-327.68 327.68l0 368.64q0 327.68 327.68 327.68ZM686.08 547.84a40.96 40.96 0 0 0 40.96-40.96v-61.44h6.83008c52.2752 0 94.1056-44.6464 95.5392-99.50208L829.44 343.04c0-56.17664-42.37312-102.4-95.56992-102.4H727.04v-20.48c0-56.55552-45.84448-102.4-102.4-102.4H358.4c-56.55552 0-102.4 45.84448-102.4 102.4V506.88a40.96 40.96 0 0 0 40.96 40.96h389.12z m0-40.96H296.96v-286.72a61.44 61.44 0 0 1 61.44-61.44h266.24a61.44 61.44 0 0 1 61.44 61.44V506.88z m47.79008-102.4H727.04v-122.88h6.83008c29.05088 0 53.4528 25.88672 54.5792 59.05408L788.48 343.04c0 34.304-24.87296 61.44-54.60992 61.44zM348.16 680.96a20.48 20.48 0 0 0 20.48-20.48v-51.2a20.48 20.48 0 1 0-40.96 0v51.2a20.48 20.48 0 0 0 20.48 20.48z m143.36 0a20.48 20.48 0 0 0 20.48-20.48v-51.2a20.48 20.48 0 1 0-40.96 0v51.2a20.48 20.48 0 0 0 20.48 20.48z m143.36 0a20.48 20.48 0 0 0 20.48-20.48v-51.2a20.48 20.48 0 1 0-40.96 0v51.2a20.48 20.48 0 0 0 20.48 20.48z"  horiz-adv-x="1024" />

    
    <glyph glyph-name="jifen2" unicode="&#60086;" d="M739.9424 857.6a89.6 89.6 0 0 0 75.52-41.3952l193.6896-303.3856a89.6 89.6 0 0 0-10.7008-110.08L576.8192-38.912a89.6 89.6 0 0 0-127.7952-1.8688L25.5488 402.688a89.6 89.6 0 0 0-10.7008 110.08L208.5376 816.2304a89.6 89.6 0 0 0 75.52 41.3952z m0-76.8H284.0576a12.8 12.8 0 0 1-10.7776-5.9136L79.5904 471.4752a12.8 12.8 0 0 1 1.536-15.7184l421.8112-441.856 2.048-1.664a12.8 12.8 0 0 1 16.2816 1.8688l421.632 441.6512a12.8 12.8 0 0 1 1.536 15.7184L750.6944 774.912a12.8 12.8 0 0 1-10.7776 5.9136z m-92.16-442.3936a38.4 38.4 0 0 0 6.6816-51.0208l-2.4064-3.1232-110.848-129.9712a38.4 38.4 0 0 0-55.5264-3.072l-2.6624 2.816-112.896 129.9712a38.4 38.4 0 0 0 55.2448 53.1968l2.7392-2.8416 83.6096-96.2816 81.92 96a38.4 38.4 0 0 0 54.1184 4.3264z"  horiz-adv-x="1024" />

    
    <glyph glyph-name="huodongxiangce1" unicode="&#60087;" d="M0 896m327.68 0l368.64 0q327.68 0 327.68-327.68l0-368.64q0-327.68-327.68-327.68l-368.64 0q-327.68 0-327.68 327.68l0 368.64q0 327.68 327.68 327.68ZM696.32 609.28c45.21984 0 81.92-37.64224 81.92-83.49696v-283.56608C778.24 196.36224 741.53984 158.72 696.32 158.72H327.68c-45.21984 0-81.92 37.64224-81.92 83.49696V525.78304C245.76 571.63776 282.46016 609.28 327.68 609.28z m0-40.96H327.68c-22.36416 0-40.96-19.07712-40.96-42.53696v-283.56608C286.72 218.75712 305.31584 199.68 327.68 199.68h216.51456c-26.9312 113.664-93.8496 173.84448-201.28768 181.92384a20.48 20.48 0 1 0 3.072 40.84736c85.22752-6.41024 149.94432-42.0864 192.48128-104.93952 42.28096 61.91104 109.84448 89.6512 198.81984 82.3296v125.952C737.28 549.23264 718.68416 568.32 696.32 568.32z m40.96-209.58208c-85.00224 7.96672-142.78656-19.5584-175.86176-82.432 10.45504-22.95808 18.72896-48.52736 24.76032-76.62592H696.32c22.36416 0 40.96 19.07712 40.96 42.53696zM588.4928 537.77408c36.6592 0 66.56-29.9008 66.56-66.56 0-36.64896-29.9008-66.56-66.56-66.56-36.64896 0-66.56 29.91104-66.56 66.56 0 36.6592 29.91104 66.56 66.56 66.56z m0-40.96c-14.0288 0-25.6-11.5712-25.6-25.6s11.5712-25.6 25.6-25.6c14.03904 0 25.6 11.5712 25.6 25.6s-11.56096 25.6-25.6 25.6z"  horiz-adv-x="1024" />

    
    <glyph glyph-name="dianpuguanli1" unicode="&#60088;" d="M0 896m327.68 0l368.64 0q327.68 0 327.68-327.68l0-368.64q0-327.68-327.68-327.68l-368.64 0q-327.68 0-327.68 327.68l0 368.64q0 327.68 327.68 327.68ZM704 305.41824c11.776 0 21.32992-9.39008 21.32992-20.96128v-62.8736c0-34.7136-28.65152-62.86336-64-62.86336H362.67008c-35.34848 0-64 28.14976-64 62.8736v62.8736c0 11.5712 9.54368 20.95104 21.32992 20.95104 11.776 0 21.32992-9.39008 21.32992-20.96128v-62.8736c0-11.5712 9.55392-20.95104 21.34016-20.95104h298.65984c11.776 0 21.34016 9.37984 21.34016 20.96128v62.8736c0 11.5712 9.54368 20.95104 21.32992 20.95104zM375.21408 609.26976l279.84896-0.02048a79.31904 79.31904 0 0 0 38.87104-11.29472 65.06496 65.06496 0 0 0 27.65824-33.1264l39.49568-92.69248 0.59392-1.57696 2.12992-6.3488 1.08544-3.65568c2.70336-9.66656 3.6864-18.66752 2.7648-27.0336-0.24576-19.15904-5.7344-37.33504-16.2816-53.99552a112.2304 112.2304 0 0 0-43.776-40.33536l-1.7408-0.80896c-5.21216-2.14016-10.2912-3.9936-15.38048-5.59104-5.56032-1.7408-11.49952-3.072-17.90976-4.0448-6.38976-0.95232-12.88192-1.41312-19.63008-1.41312-27.40224 0-51.456 7.7824-71.424 23.1424-19.67104-15.36-43.28448-23.1424-70.18496-23.1424-26.86976 0-50.47296 7.7824-70.10304 23.08096-20.30592-15.9232-44.3392-24.04352-71.48544-24.04352-20.85888 0-38.9632 3.92192-53.6576 11.8784a118.4768 118.4768 0 0 0-31.232 23.49056 103.82336 103.82336 0 0 0-21.48352 33.57696 105.10336 105.10336 0 0 0-7.3728 38.61504c0 6.00064 0.6656 11.99104 1.90464 17.59232 0.96256 4.62848 2.1504 9.33888 3.7888 15.21664 0.48128 1.7408 1.18784 3.40992 2.0992 4.95616l42.496 94.5152a64.72704 64.72704 0 0 0 27.12576 31.92832c12.27776 7.44448 26.35776 11.13088 41.79968 11.13088z m276.76672-41.91232H375.21408c-7.75168 0-14.05952-1.64864-19.42528-4.90496-4.7104-2.84672-7.86432-6.59456-9.87136-11.74528l-0.4096-0.98304-41.8304-93.04064c-0.43008-1.47456-1.00352-2.8672-1.71008-4.1984-0.95232-3.57376-1.6896-6.59456-2.31424-9.60512a41.2672 41.2672 0 0 1-0.98304-8.94976c0-8.02816 1.49504-15.86176 4.47488-23.4496a61.8496 61.8496 0 0 1 12.82048-20.0704 76.4928 76.4928 0 0 1 20.36736-15.26784c8.22272-4.4544 19.32288-6.8608 33.41312-6.8608 22.38464 0 40.36608 8.04864 55.53152 24.9344a21.58592 21.58592 0 0 0 32.1536-0.16384c14.1312-16.08704 31.5392-23.808 53.90336-23.808 22.35392 0 39.75168 7.70048 53.94432 23.808a21.58592 21.58592 0 0 0 32.1536 0.11264c14.41792-16.128 32.39936-23.92064 55.5008-23.92064 4.64896 0 9.00096 0.3072 13.18912 0.93184a75.59168 75.59168 0 0 1 11.3664 2.53952c3.584 1.1264 7.2192 2.43712 10.98752 3.95264l2.94912 1.67936a69.7344 69.7344 0 0 1 23.61344 23.12192c6.71744 10.62912 9.96352 21.6064 9.96352 33.39264l0.0512 1.4336 0.26624 2.68288c0.17408 3.56352-0.75776 8.73472-3.11296 15.31904l-0.8192 2.44736-39.3728 92.42624-0.45056 1.16736a22.9888 22.9888 0 0 1-9.94304 11.88864 36.57728 36.57728 0 0 1-19.64032 5.13024z m-19.2512-83.8144a20.48 20.48 0 0 0 20.48-20.48v-2.94912a20.48 20.48 0 0 0-20.48-20.48H383.15008a20.48 20.48 0 0 0-20.48 20.48v2.94912a20.48 20.48 0 0 0 20.48 20.48H632.7296z"  horiz-adv-x="1024" />

    
    <glyph glyph-name="jingxiaoxitong1" unicode="&#60089;" d="M0 896m327.68 0l368.64 0q327.68 0 327.68-327.68l0-368.64q0-327.68-327.68-327.68l-368.64 0q-327.68 0-327.68 327.68l0 368.64q0 327.68 327.68 327.68ZM597.27872 424.61184c9.17504-8.4992 21.38112-13.312 33.87392-13.312 12.75904 0 24.576 4.63872 33.8432 13.27104a20.48 20.48 0 0 0 21.22752 4.15744 152.6784 152.6784 0 0 0 41.33888-23.62368 20.48 20.48 0 0 0 7.12704-20.66432 48.40448 48.40448 0 0 1 5.21216-35.35872 49.5616 49.5616 0 0 1 28.5696-22.30272 20.48 20.48 0 0 0 14.34624-16.39424 150.528 150.528 0 0 0 1.93536-23.68512c0-7.72096-0.65536-15.64672-1.93536-23.6544a20.48 20.48 0 0 0-14.34624-16.40448 49.5616 49.5616 0 0 1-28.5696-22.29248 48.4352 48.4352 0 0 1-5.2224-35.36896 20.48 20.48 0 0 0-7.14752-20.6848 153.26208 153.26208 0 0 0-41.3184-23.59296 20.48 20.48 0 0 0-21.25824 4.16768 48.896 48.896 0 0 1-33.80224 13.25056c-12.48256 0-24.6784-4.80256-33.86368-13.312a20.48 20.48 0 0 0-21.20704-4.10624 152.8832 152.8832 0 0 0-41.30816 23.61344 20.48 20.48 0 0 0-7.10656 20.736 47.32928 47.32928 0 0 1-5.24288 35.26656 49.664 49.664 0 0 1-28.59008 22.3232 20.48 20.48 0 0 0-14.35648 16.384 150.09792 150.09792 0 0 0-1.92512 23.67488c0 7.74144 0.64512 15.69792 1.92512 23.69536a20.48 20.48 0 0 0 14.34624 16.384 49.57184 49.57184 0 0 1 28.54912 22.29248 48.4352 48.4352 0 0 1 5.23264 35.36896 20.48 20.48 0 0 0 7.12704 20.66432 153.05728 153.05728 0 0 0 41.3184 23.63392 20.48 20.48 0 0 0 21.22752-4.12672zM467.31264 194.56a20.48 20.48 0 1 0 0-40.96H348.16a20.48 20.48 0 1 0 0 40.96z m113.00864 191.37536c-3.6864-1.8432-7.26016-3.88096-10.7008-6.11328a89.2928 89.2928 0 0 0-11.86816-51.38432 90.25536 90.25536 0 0 0-39.0656-35.84 101.82656 101.82656 0 0 1 0-11.776 90.39872 90.39872 0 0 0 39.1168-35.84 88.28928 88.28928 0 0 0 11.89888-51.41504c3.4304-2.21184 6.98368-4.23936 10.6496-6.06208a91.00288 91.00288 0 0 0 50.7904 15.57504c18.432 0 35.98336-5.4272 50.86208-15.55456 3.66592 1.8432 7.2192 3.86048 10.6496 6.08256a89.30304 89.30304 0 0 0 11.8784 51.38432 90.24512 90.24512 0 0 0 39.08608 35.84 101.2224 101.2224 0 0 1 0 11.75552 90.2656 90.2656 0 0 0-39.09632 35.86048 89.23136 89.23136 0 0 0-11.84768 51.37408 111.4112 111.4112 0 0 1-10.6496 6.08256 90.05056 90.05056 0 0 0-50.87232-15.5648 91.00288 91.00288 0 0 0-50.83136 15.59552z m55.95136-37.77536a66.57024 66.57024 0 0 0 65.6384-55.4496 20.48 20.48 0 1 0-40.3968-6.79936 25.61024 25.61024 0 1 1-13.99808-27.32032 20.48 20.48 0 0 0 18.04288-36.7616 66.56 66.56 0 1 0-29.2864 126.34112z m8.27392 276.48c28.0576 0 42.24-2.73408 56.9856-10.62912a76.30848 76.30848 0 0 0 31.63136-31.62112c7.8848-14.7456 10.62912-28.928 10.62912-56.99584v-41.60512a20.48 20.48 0 0 0-40.96 0v41.60512c0 21.88288-1.50528 29.66528-5.7856 37.6832a35.35872 35.35872 0 0 1-14.82752 14.81728c-8.00768 4.28032-15.79008 5.7856-37.67296 5.7856h-306.176c-19.68128-0.14336-27.136-1.69984-34.77504-5.7856a35.35872 35.35872 0 0 1-14.81728-14.82752c-4.28032-8.00768-5.7856-15.79008-5.7856-37.67296v-193.536c0.14336-19.68128 1.69984-27.12576 5.7856-34.7648 3.44064-6.4512 8.37632-11.37664 14.81728-14.82752 8.00768-4.28032 15.80032-5.7856 37.6832-5.7856h73.84064a20.48 20.48 0 1 0 0-40.96h-73.85088c-28.0576 0-42.24 2.73408-56.9856 10.62912a76.30848 76.30848 0 0 0-31.63136 31.62112c-7.8848 14.7456-10.61888 28.928-10.61888 56.99584V525.39392c0 28.0576 2.73408 42.24 10.61888 56.99584a76.30848 76.30848 0 0 0 31.63136 31.62112c14.7456 7.8848 28.928 10.62912 56.9856 10.62912z"  horiz-adv-x="1024" />

    
    <glyph glyph-name="kefuguanli1" unicode="&#60090;" d="M0 896m327.68 0l368.64 0q327.68 0 327.68-327.68l0-368.64q0-327.68-327.68-327.68l-368.64 0q-327.68 0-327.68 327.68l0 368.64q0 327.68 327.68 327.68ZM512.1536 650.24c103.6288 0 191.86688-70.31808 212.3264-166.10304A71.69024 71.69024 0 0 0 778.24 414.72v-61.44a71.68 71.68 0 0 0-67.8912-71.5776c-23.56224-54.7328-69.77536-97.5872-126.90432-117.63712A51.2 51.2 0 0 0 532.48 117.76h-40.96a51.2 51.2 0 0 0 0 102.4h40.96c15.19616 0 28.84608-6.62528 38.22592-17.14176 43.78624 15.60576 79.55456 47.7184 99.19488 88.65792A71.61856 71.61856 0 0 0 634.88 353.28v61.44a71.71072 71.71072 0 0 0 47.9232 67.65568C663.74656 555.69408 594.0736 609.28 512.16384 609.28c-82.01216 0-151.66464-53.68832-170.69056-127.01696A71.69024 71.69024 0 0 0 389.12 414.72v-61.44a71.68 71.68 0 0 0-143.36 0v61.44a71.71072 71.71072 0 0 0 54.07744 69.49888C320.31744 579.8912 408.48384 650.24 512.1536 650.24zM532.48 179.2h-40.96a10.24 10.24 0 0 1 0-20.48h40.96a10.24 10.24 0 0 1 0 20.48zM317.44 445.44a30.72 30.72 0 0 1-30.72-30.72v-61.44a30.72 30.72 0 0 1 61.44 0v61.44a30.72 30.72 0 0 1-30.72 30.72z m389.12 0a30.72 30.72 0 0 1-30.72-30.72v-61.44a30.72 30.72 0 0 1 61.44 0v61.44a30.72 30.72 0 0 1-30.72 30.72z"  horiz-adv-x="1024" />

    
    <glyph glyph-name="loupanxinxi2" unicode="&#60091;" d="M0 896m327.68 0l368.64 0q327.68 0 327.68-327.68l0-368.64q0-327.68-327.68-327.68l-368.64 0q-327.68 0-327.68 327.68l0 368.64q0 327.68 327.68 327.68ZM687.9232 645.07904a30.72 30.72 0 0 0 39.96672-29.2864v-447.49824h27.47392a20.48 20.48 0 0 0 20.4288-18.944l0.0512-1.536a20.48 20.48 0 0 0-20.48-20.48H547.1232a30.72 30.72 0 0 0-30.72 30.72V222.5152a20.48 20.48 0 1 0 40.96 0v-54.23104h129.57696V601.8048l-189.92128-60.0064-0.01024-51.69152 35.6864 5.45792a30.72 30.72 0 0 0 34.68288-23.95136l0.32768-1.77152a30.72 30.72 0 0 0 0.3584-4.64896v-92.35456a30.72 30.72 0 0 0-7.40352-19.98848l-53.0944-61.952a30.72 30.72 0 0 0-48.04608 1.78176l-42.0864 57.11872a20.48 20.48 0 1 0 32.9728 24.29952l34.44736-46.75584 42.25024 49.28512v76.63616l-42.37312-6.49216a20.40832 20.40832 0 0 0-10.3936-1.5872l-125.0304-19.12832V172.6464a30.72 30.72 0 0 0-30.72-30.72H266.24a20.48 20.48 0 1 0 0 40.96h42.10688V434.85184a30.72 30.72 0 0 0 26.07104 30.37184l121.62048 18.61632v65.45408a30.72 30.72 0 0 0 19.67104 28.66176l1.80224 0.62464z"  horiz-adv-x="1024" />

    
    <glyph glyph-name="kefu4" unicode="&#60092;" d="M512 857.6c208.4608 0 380.416-148.736 395.6992-338.9696a115.2768 115.2768 0 0 0 77.7728-103.424L985.6 409.6v-153.6c0-53.76-36.8384-98.944-86.656-111.616-0.8704-3.328-2.2272-6.656-4.096-9.8048a415.744 415.744 0 0 0-226.1504-183.168 89.6256 89.6256 0 0 0-81.664-66.4832l-4.9408-0.128h-102.4a89.6 89.6 0 0 0-4.9152 179.072l4.9152 0.128h102.4c29.5168 0 55.7312-14.2848 72.0384-36.3264a338.9952 338.9952 0 0 1 162.304 126.592 115.072 115.072 0 0 0-61.1072 96.3072L755.2 256v153.6a115.2512 115.2512 0 0 0 75.4176 108.1344C815.7952 664.6016 679.424 780.8 512 780.8S208.2048 664.6016 193.3312 517.7344a115.2 115.2 0 0 0 75.3408-102.4512L268.8 409.6v-153.6a115.2 115.2 0 0 0-230.272-5.4272L38.4 256v153.6a115.2512 115.2512 0 0 0 77.9008 109.0304C131.584 708.8384 303.5392 857.6 512 857.6z m70.0928-870.4h-102.4a12.8 12.8 0 0 1-2.304-25.3952l2.304-0.2048h102.4a12.8 12.8 0 1 1 0 25.6zM153.6 448a38.4 38.4 0 0 1-38.2208-34.7136L115.2 409.6v-153.6a38.4 38.4 0 0 1 76.6208-3.6864L192 256v153.6A38.4 38.4 0 0 1 153.6 448z m716.8 0a38.4 38.4 0 0 1-38.2208-34.7136L832 409.6v-153.6a38.4 38.4 0 0 1 76.6208-3.6864L908.8 256v153.6a38.4 38.4 0 0 1-38.4 38.4z"  horiz-adv-x="1024" />

    
    </font>
</defs>
</svg>
